<svg xmlns="http://www.w3.org/2000/svg" viewBox="0 0 785.68 785.47">
  <defs>
    <style>
      .cls-1{font-size:32.43px;font-family:AvenirNextRoundedPro-Demi,Avenir Next Rounded Pro}.cls-2{fill:none;stroke:#000;stroke-miterlimit:10;stroke-width:4px}
    </style>
  </defs>
  <g id="Layer_2" data-name="Layer 2">
    <g id="Layer_1-2" data-name="Layer 1">
      <path d="M467.77 0c1.48 5.68 2.93 11.37 4.46 17 1.26 4.7 2.61 9.38 3.92 14.06.47 1.67 1 3.33 1.37 5a8.45 8.45 0 0 1-6.3 10.43c-14.15 3.92-28.32 7.78-42.46 11.74-10.29 2.88-20.54 5.87-30.82 8.79q-7.9 2.24-15.82 4.41c-4.74 1.29-9.06-1.24-10.58-6.41C369.2 57.08 367 49 364.79 41c-2.3-8.29-4.53-16.6-6.9-24.87a8 8 0 0 1 5.17-10c6.4-2 12.84-3.74 19.27-5.61A8.48 8.48 0 0 0 383.5 0h13.61A12.28 12.28 0 0 1 395 1q-14.55 4.14-29.12 8.2c-4.09 1.13-5.28 3.08-4.13 7.13 2.41 8.44 4.89 16.86 7.2 25.33.6 2.2 1.6 2.43 3.58 1.83 6.57-2 13.18-3.86 19.8-5.7 10-2.8 20.11-5.54 30.17-8.32q20.33-5.61 40.66-11.25c1.64-.46 3.22-1.11 5-1.72-1.31-4.49-2.57-8.73-3.78-13-.33-1.17-.55-2.37-.82-3.56zM470 25c-.32-4.59-.84-5.14-3.46-4.35-6.78 2.06-13.56 4.12-20.38 6.05-6.25 1.77-12.58 3.29-18.83 5.06-8.44 2.38-16.83 4.95-25.27 7.34-9.78 2.77-19.59 5.45-29.4 8.13a1.89 1.89 0 0 0-1.45 2.77c.41 1.25.8 2.56 2.69 1.94s4-1.13 6-1.69l19.32-5.41c6.78-1.89 13.59-3.84 20.39-5.64 5-1.37 10.09-2.59 15.1-4 5.92-1.68 11.78-3.57 17.69-5.27S464.07 26.66 470 25zm1.24 3.53L373.32 56.1c.17 1 .22 1.64.38 2.21s.47 1.28.88 2.36l98.14-27.44zM379.94 68c5.25-1.44 10.45-2.85 15.64-4.29 6.87-1.9 13.73-3.84 20.6-5.75 5.52-1.53 11.06-3 16.58-4.55q14.05-4 28.08-8 5.14-1.47 10.27-3a3.46 3.46 0 0 0 2.65-4.22c-.53-2.16-2.44-.64-3.51-.37-5.56 1.4-11 3.09-16.58 4.6-6.34 1.73-12.73 3.29-19.06 5.07-10.62 3-21.21 6.08-31.81 9.12-8.36 2.4-16.72 4.76-25.06 7.22-.71.21-1.25 1-1.87 1.46a8.68 8.68 0 0 0 1.63 1.92 9.32 9.32 0 0 0 2.44.79zM697.55 0a51.82 51.82 0 0 0 1.89 5.39c.77 1.64.14 2.68-1 3.6Q687 18.06 675.49 27.07c-2.15 1.68-3.09 1.39-4.39-1.18-1.64-3.26-3.22-6.54-4.74-9.65-2.33 0-4.44.12-6.53 0-3.9-.27-7.79-.75-11.69-1C646 15 645.2 14 645.27 12q.22-6 .46-12H651a28.44 28.44 0 0 0-.82 3.79 2 2 0 0 0 .82 1.63 2.44 2.44 0 0 0 1.85-.17c.48-2.69 2.68-3.15 4.7-3.93.36-.14.5-.86.74-1.31h25.65c.2.61.29 1.68.63 1.77 3.3.87 6.63 1.58 10.51 2.46L693.36 0zm-22.94 19.49l.68.07 8.27-13.85-10.27-2.43zM693.48 8a33.56 33.56 0 0 0-3.68-.92c-.84-.1-2.21-.26-2.5.17-2.2 3.27-4.18 6.69-6.24 10.05l.42.28zm-23 7.18c-.37-3.27-.72-6.55-1.12-9.82-.36-3.56-1.2-4.09-4.63-3.36.39.46 1.3 1.07 1.23 1.53-.67 4.78 2.93 7.84 4.56 11.67zM660 4.8c-.46.26-1 .38-1.17.7-.92 1.73-1.57 3.65-4 3.88-.22 0-.63 1-.47 1.3a2.5 2.5 0 0 0 1.42 1.25c2 .38 3.74.11 5-1.84s1.02-3.54-.78-5.29z"/>
      <path d="M429 0a9.54 9.54 0 0 1-2 1.11q-18.22 5.07-36.47 10.07c-1.93.53-3.86 1-5.77 1.63a4.08 4.08 0 0 0-2.9 2.94 20.39 20.39 0 0 1-3.56 5.89c-1.67 2.07-1.44 2.81 1.07 3.74 2.24.83 4.24 2.27 6.43 3.27 1.15.53 2.61 1.24 3.68.95 8.07-2.14 16.07-4.54 24.1-6.81 8.54-2.4 17.1-4.74 25.65-7.12 1.84-.51 3.71-1 5.5-1.64a3.48 3.48 0 0 0 1.41-1.54c1.35-2.27 2.64-4.58 3.92-6.9.38-.7 1-1.65.83-2.18a4.16 4.16 0 0 0-2-1.64c-1.35-.69-2.78-1.21-4.18-1.8h9.42a13 13 0 0 0 .33 1.26c1.58 4.34 1.37 4.13-1.74 7.32-1.57 1.62-2.45 4.08-3.16 6.32-.4 1.26-.49 2.09-2 2.51-12.4 3.42-24.77 7-37.15 10.46C403 30 395.53 32 388.1 34.16c-1.69.49-2.93.52-3.94-1.24a7.09 7.09 0 0 0-7-3.64c-2 .13-2.93-.65-3.15-2.57a7 7 0 0 0-.58-2c-1-2.3-1.21-4 1.64-5.45a6.67 6.67 0 0 0 3.59-6.52c-.07-1.74.67-2.45 2.27-2.88q15.61-4.19 31.18-8.54a17.76 17.76 0 0 0 2.8-1.32zM747.27 0c1.85 4.68 3.63 9.38 5.58 14 1.85 4.41 4 8.71 5.78 13.13.85 2.08 1.6 2.85 4 1.73 6.93-3.25 14-6.19 21-9.24a10.1 10.1 0 0 1 1.59-.39c.55 2.12.7 3.62-1.81 4.65-8.52 3.52-16.91 7.35-25.41 10.91a8.21 8.21 0 0 1-11.09-4.44c-4-9.06-7.87-18.21-11.8-27.31-.45-1-1-2-1.46-3.06h4.19c.67 1.51 1.35 3 2 4.54 3.53 8 7 16.1 10.59 24.12 1.2 2.7 2.72 3.35 5.46 2.54a11.32 11.32 0 0 0-.48-2c-2.75-6.29-5.59-12.54-8.29-18.85C745.67 7 744.43 3.47 743.08 0zM316.51 0c-.18 4-.4 8-.52 12-.05 1.69-.66 2.56-2.46 2.62q-7.3.21-14.59.57c-2.24.12-3.44-.54-3.39-3.05 0-.66-1-1.74-1.73-2-6.31-1.9-12.68-3.59-19-5.44-5.14-1.5-10.24-3.14-15.36-4.71h13.61l20.33 6.1L295.57 0h5.76a14.82 14.82 0 0 0-.88 2.94c-.06.63.36 1.82.7 1.87.74.11 2.24-.31 2.25-.58.17-2.73 2.68-3 4.21-4.23zm-4.81 5.42l-1.36-1.6c-.63.55-1.28 1.08-1.89 1.65-.8.77-1.58 1.56-2.35 2.37-.52.55-1 1.14-1.49 1.72.63.47 1.22 1.24 1.91 1.35 2.74.42 5.25-2.01 5.18-5.49zM100.34 0c1.37 13.46 8.33 22.88 20.9 27.75 15 5.79 32.46-1.34 39.41-16 1.76-3.71 3.18-7.53 3-11.75h4.19c-1.18 9.23-4.5 17.36-11.55 23.82a34.38 34.38 0 0 1-26.42 9.39c-13.76-.84-23.44-7.83-29.77-19.73A26.87 26.87 0 0 1 96.68 0zM529 0c3 3.07 5.64 6.67 9.09 9.13a53.52 53.52 0 0 0 34.12 10.2c12.18-.55 22.33-5 28.74-16A23.68 23.68 0 0 0 602.29 0h4.19c-2.29 7.51-7.12 13.1-13.63 17.16-9.95 6.21-20.86 7.08-32.19 5.21a56.15 56.15 0 0 1-28.3-13c-3.18-2.77-5.74-6.25-8.58-9.41z"/>
      <path d="M113.43 0c.54 10 10.86 18.14 21 16.56 9-1.4 14.45-6.8 16.65-16.56h3.14c.27 6.62-3 11.59-7.89 15.43-12.31 9.73-29.22 5.29-35.4-9.15A46.7 46.7 0 0 1 109.24 0zM35.44 0c.24.65.47 1.31.72 2C38 6.61 38 6.69 33.46 8.68c-10.41 4.55-20.86 9-31.3 13.5-.46.2-.95.3-1.5.47-1-2.4-.28-3.84 2-4.82 8.85-3.79 17.67-7.66 26.49-11.51 1.26-.55 2.48-1.16 3.78-1.77L31.25 0z"/>
      <path d="M141.69 0c.28 6.31-.11 6.88-6.29 9.66a5.35 5.35 0 0 0-1.48 1.34c-1.24 1.34-2.58 1.17-3.61-.31-.38-.54-1.19-.76-1.79-1.14a43.47 43.47 0 0 1-4.82-3.24c-.51-.43-.35-1.65-.5-2.51 1 0 2.25-.4 3.1 0 1.24.57 2.23 1.69 3.93 3.07L130.7 0h3.14l.35 6.8c.84-1.16 1.09-1.9 1.55-2.06 1.72-.6 2.21-1.35 1.46-2.84a17.71 17.71 0 0 0-1.27-1.9zM30.94 784.94l-5.86-13.78-15.33 6.66a11.61 11.61 0 0 1-2.16.92c-5.8 1.18-8.48.24-7-6.49h.47c2.64 3.86 2.66 3.91 7.07 2.05q7.93-3.34 15.81-6.82c3.46-1.53 3.82-2.76 2.25-6.36-1.4-3.19-2.68-6.42-4.09-9.6A37.49 37.49 0 0 0 20 748c-.12 1.7.2 3.16-.39 3.94-.7.94-2.15 1.36-3.33 1.89q-6.3 2.85-12.63 5.62c-.94.41-1.94.69-3 1.05-.92-2.62-.18-4.06 2.27-5 4.13-1.62 8.16-3.49 12.22-5.27.14-.06.21-.27.53-.7-2.44-5.54-4.92-11.26-7.56-16.91-.19-.42-1.65-.56-2.38-.34A47.24 47.24 0 0 0 1 734.22c-1.24-3-1-3.61 2.08-5 3.21-1.48 3.26-1.6 1.83-4.78-1.31-2.94-3-5.77-3.83-8.84-.79-2.9-.7-6-1-9.07l.94-.18c1.22 2.73 2.48 5.44 3.66 8.18 3.92 9.1 7.77 18.24 11.79 27.3a4.38 4.38 0 0 0 2.74 2.25 7.16 7.16 0 0 1 5.59 4.23c2 4.35 3.67 8.84 5.64 13.19 1.12 2.47.4 4.51-.78 6.66a3.83 3.83 0 0 0-.49 2.79c1.66 4.11 3.44 8.18 5.4 12.16.41.84 40.69 1.8 59.7 1.85 2 0 2.27-.88 2.33-2.54.53-15.26 8.05-25.89 21.71-32.29 13.38-6.27 31.51-1.89 40.85 9.59a36.37 36.37 0 0 1 8.63 22.73c.05 2.55 1.4 2.49 3.19 2.49h84.81l.1-.36c-2.78-.83-5.54-1.7-8.34-2.47-6.29-1.74-12.6-3.4-18.87-5.17-5.25-1.48-7.87-5.83-6.47-11 2.24-8.31 4.73-16.56 7.05-24.84 2.8-10 5.53-19.94 8.29-29.91a50.06 50.06 0 0 1 1.71-5.75c1.33-3.22 3.66-5.36 7.37-5.21 2 .08 2.82-.87 3.29-2.56q2.4-8.8 4.84-17.59c.66-2.41 1.31-4.83 2-7.23.83-3 1.31-3.29 4.17-2.5q22.23 6.2 44.45 12.46c5.86 1.64 11.69 3.42 17.61 4.83 2.56.61 3.14 1.85 2.55 4.08-1.3 4.87-2.61 9.75-4 14.6-2.31 8.2-4.67 16.39-7 24.58-1.21 4.27-2.48 8.52-3.47 12.84a5 5 0 0 0 .78 3.49c1.46 2.21 2.27 4.23 1.36 7-1.7 5.18-3 10.5-4.56 16.28h6.07c3.2 0 3.46.19 3.3 3.45-.13 2.69-.53 5.37-.88 8-.27 2 .24 3 2.6 3 21.46-.07 42.92 0 64.37-.12 2.62 0 5.26-1.05 7.84-1.77 8.71-2.42 17.41-4.92 26.11-7.38q12.8-3.62 25.61-7.21c3.68-1 7.36-2.1 11.08-3 3.18-.78 7.65 2.09 8.73 5.65 1.21 4 2.16 8.06 3.37 12 .21.7 1.14 1.68 1.74 1.68 18.13.09 36.27.07 54.92.07-1.22-2.51-2.41-4.53-3.21-6.69a33.85 33.85 0 0 1-.51-22.48c4.89-15.82 14.89-27.21 29.58-34.31 5.08-2.46 10.93-3.33 16.42-4.94l3-.88-.12-.73c-2.25-.17-1-21.38 2.14-22.94 3.29-1.64 6.48.27 9.58 1.25 6 1.88 11.87 4 17.82 5.95 4.8 1.57 8 4.77 7.86 8.63 0 1.63-.48 3.8-1.58 4.73a49.31 49.31 0 0 1-9.58 6.52c-2.95 1.49-4 4.27-1.62 6.58a54.57 54.57 0 0 1 16.1 30.69 55.8 55.8 0 0 1-1.63 26.1c-.18.58-.36 1.16-.51 1.75 0 .15.06.33.13.63H657a46.6 46.6 0 0 1 3.45-4.85c3-3.19 6-6.31 9.2-9.29a4.66 4.66 0 0 1 3.39-1.3q9.49 1.76 18.87 4.07c1 .25 2 1.63 2.48 2.71a38.84 38.84 0 0 1 2.33 6.35c.54 2 1.62 2.51 3.59 2.49 10.2-.09 20.41 0 30.62 0 .76 0 1.52-.09 2.64-.17L726.74 769c-1.63-3.75-3.34-7.47-4.87-11.26a8 8 0 0 1 2.59-9.2c1.52-1.23 1.41-2.16.7-3.74-3.54-7.94-6.86-16-10.47-23.9-1.14-2.51-.08-3.56 1.9-4.42 5.18-2.26 10.39-4.48 15.57-6.73 13.72-6 27.46-11.87 41.14-17.91 5.46-2.41 5.47-2.51 7.73 2.92a79.27 79.27 0 0 0 3.38 7.63c1.78 3.24 1 6.56 1.09 9.86l-.71.24c-1.21-2.69-2.57-5.32-3.58-8.08-.94-2.57-1.93-4.48-5.27-4.12-1.14.13-2.63-.87-3.6-1.74s-1.93-1.53-3.37-.62-3.17.86-3.13 3.44c0 1.76-1.2 3.71-2.31 5.26-.76 1.06-1 1.71-.5 2.92 3.39 7.73 6.69 15.49 10 23.24.72 1.68 1.62 2.45 3.62 1.43 2.68-1.36 5.55-2.34 8.39-3.5 1.26 2.79.06 4.07-2.17 5-10.23 4.38-20.44 8.82-30.66 13.24q-7.66 3.31-15.35 6.58c-1.79.76-2.26 1.82-1.43 3.67 3.45 7.7 6.92 15.39 10.14 23.19.88 2.14 2.05 2.55 4.1 2.53 11-.08 22 0 33-.08m-550.2-11.16c1 .37 1.63.65 2.29.84q12.66 3.63 25.32 7.24c3.84 1.09 7.67 2.72 11.58 3 7.29.48 14.64.18 22 .1a2.48 2.48 0 0 0 1.94-1.16c1.3-4 2.54-8.12 1.47-12.54-5.42-1.59-10.86-3.11-16.25-4.78-4.25-1.32-6.11-5-4.81-9.25.71-2.33 1.44-4.65 2.13-7 1.53-5.19 4.59-7 9.87-5.68q7.19 1.86 14.28 4.11c2.11.67 3.36.25 3.94-1.89 1.34-5 2.65-9.91 4-14.86.37-1.35.09-2.05-1.37-2.46-8.29-2.3-16.54-4.72-24.82-7-10.54-3-21.12-5.81-31.62-8.9-2.16-.64-3.15-.14-3.68 1.79-1.71 6.2-3.34 12.42-5.08 18.62-2.37 8.45-4.84 16.88-7.22 25.33-1.36 4.73-2.61 9.51-3.96 14.54zm346.69 11.2h21.74c1.5 0 2.1-.64 2.54-2 2.78-8.68 3.8-17.41 2-26.49a53.2 53.2 0 0 0-15.87-29 7.67 7.67 0 0 0-3-1.46c-3.39-1.07-6.78-2.24-10.25-3-3.19-.68-5.75-3.6-9.33-2.69-5 1.29-10.37 2-15 4.17-15.13 7.09-25.75 18.23-29.54 35.09-2 8.74 0 16.54 4.78 23.81a4.45 4.45 0 0 0 3.22 1.53c6.54.14 13.08.07 19.62.06M159.19 784.94h1.31c3.25 0 3.21 0 3.25-3.41a27.63 27.63 0 0 0-4.08-14.38 31.74 31.74 0 0 0-48-8.62 30.47 30.47 0 0 0-11.36 24.25c0 2 1.17 2.54 2.66 2.1 2.09-.61 5.26 2 6.25-1.89.49-1.92.52-3.95 1-5.88 3.43-14.87 22.14-21.9 34.59-13 6.27 4.48 9.79 10.52 10 18.29.05 2.12.89 2.81 2.85 2.56a14.53 14.53 0 0 1 1.53-.02zm590.54-39.6c-.21-.69-.28-1-.41-1.35-3.5-8.05-7-16.12-10.56-24.13-.28-.62-1.41-.92-2.19-1.24-1.86-.77-4.13-1.05-5.55-2.31-1.72-1.53-2.92-.47-4.27 0s-2.62 1-2.37 2.91a6.57 6.57 0 0 1-2.28 5.84 2.46 2.46 0 0 0-.43 2.2q5.15 12.13 10.54 24.15a2.63 2.63 0 0 0 2.32 1.08c4.68-1.87 9.28-3.94 13.88-6a5.75 5.75 0 0 0 1.31-1.15zm3.86-1.14c5.32-2.26 10.18-4.33 15.05-6.38 1.36-.57 1.89-1.43 1.25-2.87-1.09-2.46-2.13-4.94-3.2-7.41q-3.46-8-6.93-16a2.71 2.71 0 0 0-2.6-2c-1.92-.18-3.74-1.41-5.63-2.1a5.73 5.73 0 0 0-2.92-.65 19.12 19.12 0 0 0-3.87 1.87c1.43 3.86-.76 6.12-3.08 8.26zm-485.77-30.44A6.19 6.19 0 0 0 269 712q3.71-12.75 7.24-25.55c.15-.55-.48-1.37-.86-2a44.25 44.25 0 0 1-3.2-5.16c-.47-1.09-.22-2.4-1.94-2.55s-3.44-1.61-5.08.79a7.07 7.07 0 0 1-4.38 2.35 3 3 0 0 0-2.9 2.69c-.78 3.2-1.8 6.35-2.68 9.53-1.36 4.93-2.76 9.86-4 14.83-.18.74.36 2.31.88 2.46 5.03 1.55 10.08 2.84 15.74 4.37zm51.83-15.57a8 8 0 0 0-1.25-1.75 6.8 6.8 0 0 1-2.67-5.4c0-2.74-2.73-1.84-4.18-2.61-.53-.28-1.65.19-2.33.6-1.67 1-3.1 2.68-4.87 3.16s-2.66 1.1-3.13 2.83c-2.14 7.79-4.25 15.59-6.64 23.3-.68 2.19-.09 3.11 1.8 3.63 4.35 1.2 8.74 2.27 13.07 3.56 2.05.61 2.81-.17 3.31-2 1.43-5.37 3-10.7 4.48-16.06.76-2.96 1.54-5.91 2.41-9.26zm-31.46-16.29c-1.57 2.57-3.44 4.32-6.51 4.42a2.41 2.41 0 0 0-1.72 1.41c-2.59 8.92-5.08 17.87-7.6 26.84.39.29.64.6.94.68 5.17 1.47 10.34 3 15.56 4.27.49.12 1.67-1 1.92-1.71 1-3 1.86-6.16 2.72-9.25 1.6-5.75 3.16-11.51 4.51-16.41-1.6-2.36-3.64-4-3.78-5.85-.21-2.87-1.64-3.45-3.83-3.82-.69-.11-1.35-.35-2.21-.58zm-153.85 92.91c-1.19 4.54-.64 5.71 3.49 7.42.71.3 1.29.92 2 1.21a20.3 20.3 0 0 0 4.21 1.44c1.44.25 3-.07 4.43.08 2.19.23 2.63-.82 2.61-2.75-.09-8.42-6.9-16.3-15.56-17.86-11.56-2.08-22.38 6.75-22.2 18 0 1.91.65 2.63 2.59 2.57 3.75-.12 7.5 0 11.25 0 1 0 1.91-.08 2.86-.13a16.43 16.43 0 0 0-3.65-2.3c-4.62-2.82-4.55-8 .13-10.66a49.7 49.7 0 0 1 5-2.47 2.36 2.36 0 0 1 1.78 0 37.33 37.33 0 0 1 5 2.89 14.62 14.62 0 0 1 2.32 2.7l-.57 1zm266.5 9.72v.41h8.36c2.78 0 5.88.43 8.6-.23 7.68-1.87 15.27-4.15 22.84-6.42 1.75-.52 2.75-.3 3.66 1.27a7.89 7.89 0 0 0 7 3.87c.69 0 1.6-.15 2 .22 3 2.62 6.44.68 10 1.39-1.23-4.52-2.16-8.58-3.46-12.52-.91-2.76-3.15-3.69-6.14-2.9-4 1.06-8 2.22-12.05 3.35l-26.61 7.51zm-91-33.52l-.67-.42c-.86 1.66-1.41 3.57-3.92 2.81-6.06-1.82-12.2-3.42-18.28-5.19-2.73-.8-4.34-.21-5.23 2.49s-1.51 5.34-2.16 8a3.17 3.17 0 0 0 2.24 4.13c6.5 1.89 13 3.63 19.57 5.38 2.31.62 3.91-.24 4.6-2.6.62-2.08 1.29-4.14 1.84-6.24.77-2.75 1.39-5.56 2.05-8.37zM248 703.81c-3-.11-4.92 1.13-5.62 3.66-1.71 6.11-3.32 12.25-5 18.36-2.4 8.54-4.89 17-7.28 25.58-1.46 5.19-2.87 10.39-4.19 15.62-.72 2.87.11 4.45 2.84 5.48zM572.3 695c1.41 5 0 11.2 0 16 4 1.59 14.36 3.31 18.5 4.83a3.51 3.51 0 0 0 2.54-.18 40.37 40.37 0 0 0 6.68-4c3.55-2.83 2.68-6.79-1.65-8.31-2.54-.9-5.06-1.83-7.62-2.67-4.27-1.35-14.16-4.26-18.45-5.67zm155.5 56c-2.71 2-3.11 4-1.69 7.27q5.21 11.81 10.39 23.63c1.48 3.39 1.87 3.61 5.81 2.54zm-52.66 22.6l4.36 10.8 8.76-7.84zm-3.5 1.68l-8 7 12 2.73zm-99.44-58.83a20.63 20.63 0 0 0 3.52 2.32c3.16 1.19 6.37 2.29 9.63 3.16.82.22 1.91-.57 2.87-.89-.47-1-.71-2.55-1.46-2.85-4.38-1.81-8.87-3.47-14.55-1.75zm-270.76 63.2c.26.3.77 1.41 1.51 1.59.53.13 1.36-1 2-1.57s1.55-1.27 2.29-2c.47-.43 1.17-.91 1.2-1.42a1.94 1.94 0 0 0-1-1.51c-2.44-.97-5.91 1.46-5.99 4.9zm383.42 5.08h8.47l-2.09-5.85zm-251.7-.22l.08.24h9.81l.26-.61c-.93-.58-2-1.75-2.78-1.62a63 63 0 0 0-7.35 1.97zm-125.51.38c.86 0 2.27.37 3.24-.12.78-.39 1.16-1.8 1.43-2.83.09-.36-.69-.95-1.07-1.43a16.76 16.76 0 0 0-2 1.85 21 21 0 0 0-1.58 2.51zm-177.78-5l.68-.37c0-1.26.05-2.52 0-3.77 0-.44-.36-1.2-.62-1.23a1.83 1.83 0 0 0-1.52.53c-.43.76-1 1.86-.69 2.52.35.92 1.4 1.56 2.16 2.32zm443.71-74.66l-9-8.27M132.87 231.09c-.51-.55-1.67-1.22-1.92-2.14-1.77-6.54-3.33-13.14-5-19.72-1.77-7-3.55-14-5.4-21-.5-1.9-.78-3.56.51-5.41a81 81 0 0 0 5.17-8.75 7.14 7.14 0 0 1 4.92-3.85q10.77-2.67 21.52-5.39c9.28-2.34 18.55-4.72 27.82-7.05 7.5-1.89 15-3.72 22.53-5.61 3.29-.83 6.57-1.66 9.83-2.6a5.23 5.23 0 0 1 4.9.72 45.32 45.32 0 0 0 7.84 4.65c3.13 1.35 4.27 3.78 5 6.75q3.5 14.45 7.08 28.87c.86 3.46 1.81 6.9 2.76 10.33.51 1.84 0 3-1.95 3.52-4.72 1.2-9.41 2.51-14.13 3.72q-16.3 4.16-32.62 8.27l-35.64 9-20.49 5.16c-.68.23-1.38.3-2.73.53zm54.06-60.32c-1.44.28-2.64.46-3.81.76-5.64 1.43-11.24 3.06-16.92 4.28-2.43.52-2.73 1.58-2.2 3.63q4.5 17.27 8.93 34.56c.72 2.81 1.13 3.05 3.88 2.32 5.37-1.44 10.74-2.89 16.14-4.21 4.27-1 4.38-1.36 3.21-5.64-2.06-7.54-3.9-15.14-5.85-22.72-1.09-4.27-2.22-8.53-3.38-12.99zm2.86-4.81l32.69-8.26c-3.93-2.52-6.79-5.23-11.3-3.78s-9.39 2.47-14.09 3.68c-2.83.73-5.66 1.5-8.79 2.33zm11.38 44c3.62-.9 7.16-1.76 10.69-2.66 7.41-1.88 14.78-3.9 22.23-5.58 2.87-.65 1.94-2.34 1.63-3.91-.41-2.09-2-1.53-3.35-1.2-10.12 2.53-20.21 5.13-30.33 7.65-1.82.45-2.59 1.3-1.89 3.14.3.8.63 1.6 1.02 2.6zm-40.6-28.06c-.12-3.77-.95-4.33-3.76-3.61-5.38 1.37-10.8 2.62-16.19 4-4.88 1.23-9.74 2.53-14.61 3.8-2 .52-1.68 1.93-1.22 3.31s1 2.33 3 1.76c5.67-1.62 11.42-2.93 17.14-4.37 4.46-1.12 8.93-2.2 13.36-3.43a8.07 8.07 0 0 0 2.28-1.46zm67.36-12.26c-.86.15-1 .18-1.21.22q-12.61 3.19-25.22 6.39c-2.35.6-4.72 1.16-7 1.95s-.77 2.67-.64 4c0 .39 1.59 1.07 2.29.91 7.85-1.86 15.67-3.83 23.49-5.82 2.86-.73 5.72-1.45 8.5-2.43a2.67 2.67 0 0 0 1.16-2.27 10.14 10.14 0 0 0-1.37-2.95zm-93 57.07l2-.48 30.85-7.82c1.09-.28 2.56-.35 1.82-2-.59-1.33-.12-3.84-3.1-3-4.61 1.26-9.29 2.26-13.93 3.44-6 1.52-12 3-17.9 4.73-.52.15-1 1.55-.95 2.3a10.39 10.39 0 0 0 1.22 2.83zm57.19-52.24a13.11 13.11 0 0 0 1.71-.18c10.7-2.66 21.41-5.32 32.09-8.05a2 2 0 0 0 1.16-1.41c.35-2.81-1-4-3.7-3.36q-13.92 3.39-27.81 6.85c-1.64.41-3.21 1.08-4.88 1.66zm-35-6.53a22.23 22.23 0 0 0-2.57.31c-6.14 1.53-12.27 3.12-18.41 4.66-5.41 1.36-8.6 4.33-9.51 9l32.16-8.17zM130.5 209c1.4-.24 2.1-.3 2.77-.48 9.74-2.5 19.46-5.07 29.22-7.48 1.72-.43 3-.66 2.56-2.9s-1.38-2.88-3.64-2.29c-7.21 1.89-14.48 3.58-21.71 5.39-3.11.78-6.18 1.74-9.29 2.49-2 .48-1.49 1.86-1.16 3a9.51 9.51 0 0 0 1.25 2.27zm100.24-30.46c-1.6.29-3.05.46-4.46.82-9.6 2.45-19.19 4.95-28.78 7.41-1.13.29-2.81.13-2 2.06.56 1.4.3 3.83 3.16 3 2.68-.75 5.41-1.3 8.11-2 7.75-2 15.48-4 23.23-6 1.36-.34 2-1 1.57-2.39-.31-.81-.57-1.73-.83-2.88zM132.34 218c6.65-1.61 13-3.11 19.28-4.69 4.54-1.14 9-2.51 13.59-3.55 3-.68 1.92-2.5 1.54-4.2-.47-2.12-1.92-1.21-3.09-.91q-11.48 2.9-22.94 5.85c-3.3.85-6.58 1.78-10 2.71zm29.51-31.36c-1.3.18-2.35.24-3.35.49q-15.17 3.83-30.33 7.75c-.58.15-1.4.64-1.51 1.11a3 3 0 0 0 3.78 3.76c7.09-1.73 14.19-3.47 21.26-5.26 3.77-1 7.52-2 11.46-3.12zm70.84.66c-4.06 1-7.78 1.88-11.48 2.82-7.23 1.85-14.45 3.77-21.69 5.57-2.26.56-1.57 1.95-1.38 3.43.24 1.86 1.33 2.06 2.77 1.71 1.69-.41 3.34-1 5-1.39 8.76-2.18 17.54-4.3 26.27-6.57a2.8 2.8 0 0 0 1.69-2c.01-1.18-.71-2.31-1.18-3.59zm-71.57-20.57c.09.59.13 1 .22 1.41 1.06 4.73 1.06 4.72 5.72 3.56.84-.21 1.7-.37 2.54-.58 4.71-1.18 9.4-2.43 14.13-3.53 2.21-.51 2.19-1.93 1.68-3.55s-.8-3.27-3.28-2.62c-6.94 1.82-13.93 3.51-21.01 5.29zM422.5 472.1c-.67.59-1.39 1.71-2.34 2-8.66 2.27-17.38 4.35-26.06 6.54-9.18 2.32-18.34 4.75-27.52 7.07-9.44 2.39-18.9 4.68-28.35 7.06-6.83 1.72-13.66 3.43-20.44 5.29-3.79 1-4.32 1-5.3-2.81-2.61-10.09-5.07-20.22-7.64-30.32-.85-3.37-2-6.67-2.68-10.06a7.29 7.29 0 0 1 .67-4.4 79.07 79.07 0 0 1 5.59-9.41 7.78 7.78 0 0 1 3.95-3c14.2-3.76 28.45-7.34 42.69-11 12.56-3.18 25.14-6.3 37.68-9.55 3.14-.81 5.88-.71 8.62 1.29 2.37 1.74 5.17 2.91 7.51 4.69a8.18 8.18 0 0 1 2.83 4c2.54 9.3 4.86 18.67 7.23 28 1.17 4.75 2.28 9.4 3.56 14.61zm-67 14.41c7.32-1.87 14.36-3.71 21.43-5.46 1.95-.48 1.88-1.59 1.47-3.14-3-11.68-6.06-23.37-8.94-35.09-.46-1.86-1-2.58-2.94-2.08-5.88 1.52-11.8 2.9-17.67 4.48-3.86 1-3.77 1.22-2.71 5.2 2.09 7.88 4 15.8 6.07 23.7 1.04 4.1 2.16 8.17 3.28 12.39zm18.56-42.27c9-2.26 17.88-4.49 26.78-6.74a67.59 67.59 0 0 0 7-2c2.37-.88.43-2.69.45-4 0-.27-1.49-.92-2.2-.8-2.13.35-4.22 1-6.32 1.53-7.83 2-15.64 4.06-23.49 5.94-3.82.91-4.12 1.19-2.83 4.78.16.38.36.76.6 1.29zm7.69 30.21c.34 5.24.51 5.39 5 4.24 9.67-2.47 19.33-5 29-7.44 1.62-.4 2.63-.89 2-2.73-.52-1.63-1-3-3.41-2.35-4.5 1.3-9.1 2.26-13.64 3.4-6.24 1.59-12.53 3.23-18.95 4.88zM412.1 448l-10.42 2.62c-7.64 1.94-15.29 3.87-22.91 5.87a2.32 2.32 0 0 0-1.49 1.39c-.46 2.76 1.32 4.14 4 3.43 9.56-2.52 19.12-5 28.71-7.4 3.92-.99 4.4-1.91 2.11-5.91zm-7.87-20.85c-2.81-1.7-4.91-3-7.09-4.26a2.72 2.72 0 0 0-1.72.08c-7.76 1.92-15.5 3.91-23.27 5.78-1.55.37-2.31 1.18-1.61 2.52s-.72 4.55 2.81 3.72q6.72-1.57 13.4-3.27c5.55-1.43 11.07-2.9 17.49-4.58zM315 491.3c.81 4.5.78 5.89 5.43 4a5.29 5.29 0 0 1 .76-.18c7.42-1.81 14.86-3.59 22.27-5.44 2.66-.66 5.28-1.5 8.09-2.31l-1.33-5zm32.28-21.53a26.94 26.94 0 0 1-.87-2.93c-.31-1.89-1.29-2.08-3-1.63q-14.25 3.78-28.55 7.37c-4.61 1.16-4.63 1.07-3.34 5.64 0 .14.25.23.5.45zm-39.1-18.64a6.52 6.52 0 0 0 1.27 0c9.54-2.36 19.07-4.76 28.61-7.09 3.33-.81 1.49-3 1.39-4.77-.12-2-1.53-1.76-2.86-1.42-6.41 1.62-12.73 3.71-19.23 4.73-5.36.82-7.17 4.32-9.16 8.55zm103.2-7c-1.28-5.35-1.26-5.26-5.13-4.24q-13.84 3.64-27.72 7.13c-4 1-4 .35-2.88 4.73a11.89 11.89 0 0 0 .53 1.28zm-62.32 34.47c-.41-5.08-.79-5.32-5.22-4.16q-14.25 3.73-28.52 7.34c-1.61.4-2.91.73-2.33 2.82.49 1.76 1.1 2.94 3.44 2.32 7-1.86 14.16-3.48 21.24-5.26 3.8-.9 7.54-1.97 11.41-3.01zm30.16-12.92l1.32 5c4-1 7.84-1.91 11.62-2.87 7.24-1.84 14.46-3.77 21.73-5.54 2.37-.58 1.55-2 1.33-3.43-.27-1.65-1.24-2.14-2.81-1.74-8.33 2.13-16.67 4.23-25 6.36-2.66.73-5.3 1.48-8.17 2.26zm-69.65 4c1.38-.27 2.66-.46 3.9-.78 9.52-2.42 19-4.94 28.57-7.24 2-.48 2.8-.92 2.36-3.22s-1.6-2.43-3.49-1.95c-9.27 2.34-18.56 4.59-27.83 6.93-1.65.42-3.23 1.1-4.88 1.67zm31.68-22.5c-1.27.23-2.39.37-3.47.64-9.76 2.48-19.49 5.09-29.3 7.39-2.39.56-2.29 1.55-2 3.44.34 2.23 1.53 2.17 3.15 1.76 10.27-2.61 20.53-5.23 30.81-7.79 1.87-.47 2.54-1.32 1.65-3.14-.27-.54-.45-1.22-.82-2.22zm26.54-10.85l-1.85-6c-2.23.53-4.17 1-6.08 1.44-5.2 1.33-10.4 2.65-15.56 4.1-.58.16-1.42 1.18-1.34 1.66a34.44 34.44 0 0 0 1.46 4.66zM137.68 621.4c-.67.59-1.39 1.71-2.34 2-8.66 2.27-17.38 4.35-26.06 6.54-9.18 2.32-18.34 4.75-27.52 7.07-9.44 2.39-18.9 4.68-28.35 7.06-6.83 1.72-13.66 3.43-20.44 5.29-3.79 1-4.32 1-5.3-2.81-2.61-10.13-5.07-20.25-7.67-30.36-.85-3.37-2-6.67-2.68-10.06a7.29 7.29 0 0 1 .67-4.4 79.07 79.07 0 0 1 5.59-9.41 7.78 7.78 0 0 1 3.95-3c14.2-3.76 28.45-7.34 42.69-11 12.56-3.18 25.14-6.3 37.68-9.55 3.14-.81 5.88-.71 8.62 1.29 2.37 1.74 5.17 2.91 7.51 4.69a8.18 8.18 0 0 1 2.83 4c2.54 9.3 4.86 18.67 7.23 28 1.2 4.78 2.31 9.43 3.59 14.65zm-67 14.41C78 633.94 85 632.1 92.1 630.35c1.95-.48 1.88-1.59 1.47-3.14-3-11.68-6.06-23.37-8.94-35.09-.46-1.86-1-2.58-2.94-2.08-5.88 1.52-11.8 2.9-17.67 4.48-3.86 1-3.77 1.22-2.71 5.2 2.09 7.88 4 15.8 6.07 23.7 1.05 4.09 2.17 8.17 3.29 12.39zm18.56-42.27c9-2.26 17.88-4.49 26.78-6.74a67.59 67.59 0 0 0 7-2c2.37-.88.43-2.69.45-4 0-.27-1.49-.92-2.2-.8-2.13.35-4.22 1-6.32 1.53-7.83 2-15.64 4.06-23.49 5.94-3.82.91-4.12 1.19-2.83 4.78.16.37.37.75.6 1.29zm7.69 30.21c.34 5.24.51 5.39 5 4.24 9.67-2.47 19.33-5 29-7.44 1.62-.4 2.63-.89 2-2.73-.52-1.63-1-3-3.41-2.35-4.5 1.3-9.1 2.26-13.64 3.4-6.24 1.59-12.53 3.22-18.95 4.87zm30.36-26.46l-10.42 2.62c-7.64 1.94-15.29 3.87-22.91 5.87a2.32 2.32 0 0 0-1.49 1.39c-.46 2.76 1.32 4.14 4 3.43 9.56-2.52 19.12-5 28.71-7.4 3.91-.98 4.39-1.93 2.1-5.92zm-7.87-20.85c-2.81-1.7-4.91-3-7.09-4.26a2.72 2.72 0 0 0-1.72.08c-7.76 1.92-15.5 3.91-23.27 5.78-1.55.37-2.31 1.18-1.61 2.52s-.72 4.55 2.81 3.72q6.72-1.57 13.4-3.27c5.54-1.43 11.06-2.9 17.48-4.58zM30.19 640.6c.81 4.5.78 5.89 5.43 4a5.29 5.29 0 0 1 .76-.18c7.42-1.81 14.86-3.59 22.27-5.44 2.66-.66 5.28-1.5 8.09-2.31l-1.33-5zm32.28-21.53a26.94 26.94 0 0 1-.87-2.93c-.31-1.89-1.29-2.08-3-1.63q-14.25 3.78-28.55 7.37c-4.61 1.16-4.63 1.07-3.34 5.64 0 .14.25.23.5.45zm-39.1-18.64a6.52 6.52 0 0 0 1.27 0c9.54-2.36 19.07-4.76 28.61-7.09 3.33-.81 1.49-3 1.39-4.77-.12-2-1.53-1.76-2.86-1.42-6.41 1.62-12.73 3.71-19.23 4.73-5.33.81-7.18 4.31-9.17 8.55zm103.2-7c-1.28-5.35-1.26-5.26-5.13-4.24q-13.84 3.64-27.72 7.13c-4 1-4 .35-2.88 4.73a11.89 11.89 0 0 0 .53 1.28zm-62.31 34.51c-.41-5.08-.79-5.32-5.22-4.16q-14.25 3.73-28.52 7.34c-1.61.4-2.91.73-2.33 2.82.49 1.76 1.1 2.94 3.44 2.32 7-1.86 14.16-3.48 21.24-5.26 3.77-.95 7.52-2 11.39-3.06zM94.42 615l1.32 5c4-1 7.84-1.91 11.62-2.87 7.24-1.84 14.46-3.77 21.73-5.54 2.37-.58 1.55-2 1.33-3.43-.27-1.65-1.24-2.14-2.81-1.74-8.33 2.13-16.67 4.23-25 6.36-2.68.7-5.32 1.46-8.19 2.22zm-69.65 4c1.38-.27 2.66-.46 3.9-.78 9.52-2.42 19-4.94 28.57-7.24 2-.48 2.8-.92 2.36-3.22s-1.6-2.43-3.49-1.95c-9.27 2.34-18.56 4.59-27.83 6.93-1.65.42-3.23 1.1-4.88 1.67zm31.68-22.5c-1.27.23-2.39.37-3.47.64-9.76 2.48-19.49 5.09-29.3 7.39-2.39.56-2.29 1.55-2 3.44.34 2.23 1.53 2.17 3.15 1.76 10.27-2.61 20.53-5.23 30.81-7.79 1.87-.47 2.54-1.32 1.65-3.14-.29-.57-.47-1.24-.84-2.24zM83 585.7l-1.85-6c-2.23.53-4.17 1-6.08 1.44-5.2 1.33-10.4 2.65-15.56 4.1-.58.16-1.42 1.18-1.34 1.66a34.44 34.44 0 0 0 1.46 4.66zM784.39 370.61c-1 4.06-1.91 7.69-2.85 11.31q-3.55 13.62-7.14 27.24c-.33 1.26-.67 2.52-1.08 3.76-1.18 3.55-1.47 3.73-5 2.81q-20.18-5.3-40.35-10.62-15.62-4.1-31.25-8.17-15.27-4-30.53-8c-2.55-.67-3-1.69-2.29-4.24 2.37-8.9 4.66-17.83 7-26.75 1.25-4.8 2.4-9.63 3.83-14.37a6.3 6.3 0 0 1 2.5-3.1c3.2-2.1 6.57-3.93 9.85-5.9a5.45 5.45 0 0 1 4.66-.44c12.85 3.45 25.76 6.65 38.63 10 13 3.41 25.95 7.39 39.11 10.2 5.75 1.23 8.71 4.37 11.13 8.94 1.32 2.51 2.59 5.03 3.78 7.33zm-53.86 31.32l10.4-40.48-23.39-6.14c-1.44 5.35-2.83 10.45-4.18 15.55-2 7.39-3.78 14.81-5.86 22.17-.55 1.93-.14 2.67 1.7 3.15 6.95 1.82 13.88 3.73 21.33 5.74zm40.18 5q-9.18-2.44-18.34-4.88c-4.77-1.28-9.52-2.61-14.29-3.87-.85-.22-2.39-.54-2.54-.25a13.53 13.53 0 0 0-1.39 4.41c0 .32 1.39 1 2.23 1.23 9.57 2.5 19.18 4.85 28.73 7.44 4.25 1.15 4.65 1.11 5.59-3.16a5.15 5.15 0 0 0 .01-.95zm.76-3.78c2.52-4.19 2.17-4.95-2.08-6-4.81-1.18-9.58-2.51-14.36-3.8-5.1-1.38-10.16-2.92-15.29-4.16-2.6-.63-2.48 1.9-3 3.36-.62 1.65.82 1.81 1.9 2.08 4.45 1.11 8.91 2.17 13.34 3.32 6.46 1.67 12.91 3.42 19.49 5.18zm6.1-21.86a5.65 5.65 0 0 0-1.75-1.23c-6.59-1.92-13.18-3.8-19.81-5.56-3.94-1-7.95-1.84-11.92-2.79-1.71-.41-2.24.68-2.4 2-.14 1.13-1.1 2.59 1 3.14 10.35 2.64 20.67 5.36 31 8 2.66.6 3.67-.2 3.88-3.58zm-38.28 3.18c.38.34 1 1.35 1.92 1.62 2.39.72 4.9 1.05 7.33 1.67 7.56 1.94 15.12 3.92 22.66 5.92 1.46.39 2.92 1 3.52-1.16.49-1.77 1-3.24-1.69-3.89-9.93-2.45-19.81-5.09-29.71-7.67-3.23-.87-3.75-.54-4.03 3.48zm39.29-7.66c1.93-4.89 1.74-5.31-2.93-6.49-1.09-.27-2.23-.32-3.31-.61-8.37-2.23-16.73-4.49-25.1-6.74-1.59-.43-2.75-.1-3.07 1.75-.14.84-.36 1.66-.63 2.87zm-.51-9.64l.69-.73c-1.9-2.34-3.36-5.93-5.78-6.78-7.77-2.72-15.89-4.44-23.88-6.5-.51-.13-1.53 0-1.63.23a14.07 14.07 0 0 0-1.24 4.69c0 .5 1.86 1.08 2.92 1.49a26.35 26.35 0 0 0 2.78.72zM682.23 342c2.67.73 4.76 1.33 6.85 1.88 7.14 1.89 14.32 3.68 21.43 5.7 3.91 1.11 4 1.21 5.21-2.7.05-.17.12-.33.19-.49.56-1.34.2-2-1.3-2.43-7.66-2-15.29-4-23-6a4.33 4.33 0 0 0-2.78.07c-2.1 1.07-4.11 2.43-6.6 3.97zm26.66 30c-1.32-.44-2.52-.91-3.76-1.24-9.74-2.55-19.49-5-29.21-7.62-1.47-.39-2.18-.23-2.7 1.33-1 3.14-1 3.31 2.64 4.28q14.85 3.91 29.71 7.8c1.65.43 2.75.13 2.91-1.81.08-.84.25-1.68.41-2.74zm-30.31-26.78c-2 4.57-2 4.67 2.24 5.93 4.08 1.21 8.23 2.18 12.34 3.25 6 1.56 11.93 3.13 17.91 4.65.42.11 1.26-.06 1.34-.3a8.79 8.79 0 0 0 .86-3.71c-.07-.61-1.46-1.3-2.37-1.55q-11.56-3.15-23.17-6.13c-2.99-.78-6.03-1.42-9.14-2.14zm-8.15 30.64a6.74 6.74 0 0 0 1.87 1.14q7.9 2.26 15.84 4.34c5 1.3 9.93 2.56 14.92 3.72a3.15 3.15 0 0 0 2.56-.36c2-2.29 1.2-4.15-1.81-4.78-1-.21-2-.51-3-.78-8.82-2.33-17.63-4.7-26.47-7-3.18-.73-3.57-.32-3.9 3.71zm5.56-22a13.28 13.28 0 0 0-.78 3.49 2.76 2.76 0 0 0 1.31 2 58.64 58.64 0 0 0 6 1.67c7.47 2 15 3.79 22.39 5.89 4.91 1.39 5 1.52 6.39-3.29 0-.13-.09-.32-.19-.62zm-6.52 26.51c-2.08 4.8-2.49 5.11 2.63 6.13 3.06.62 6.06 1.58 9.09 2.39 6.47 1.72 12.93 3.48 19.41 5.13 1.24.32 2.77 1 3.2-1.33.35-1.88.65-3.2-1.88-3.83-10.79-2.73-21.53-5.64-32.44-8.52zm72.28-22.67a30 30 0 0 0 1.11-2.93c.51-1.9.59-3.29-2.1-3.9-6.43-1.45-12.75-3.38-19.15-5-.54-.14-1.53.59-2 1.17s-.34 1.5-.58 2.25c-.54 1.71.06 2.49 1.81 2.93 6.96 1.71 13.82 3.58 20.92 5.45zM304.68 356.43c.85-5.68 1.68-11.36 2.55-17 1-6.27 1.92-12.54 2.92-18.8 1.4-8.67 2.85-17.33 4.27-26a8.48 8.48 0 0 1 6.83-7c2.1-.31 2.75-1.25 3-3.11 1-6.79 2.11-13.57 3.2-20.35.32-2 .69-3.94 1-5.91a2.2 2.2 0 0 1 2.77-2.05c8.33 1.34 16.65 2.74 25 4.07 5.67.9 11.36 1.67 17 2.59 7.81 1.27 15.59 2.66 23.4 3.92 2.1.34 2.47 1.46 2.16 3.33q-2.88 17.23-5.67 34.48c-1.06 6.52-2.13 13-3 19.59a3.63 3.63 0 0 0 1.23 2.55 7.56 7.56 0 0 1 2.42 7.32c-.78 4.28-1.65 8.54-2.23 12.85a6.8 6.8 0 0 1-4.33 5.72c-1.55.66-1.92 1.63-2.14 3.16-.92 6.28-2 12.53-3 18.8-.3 1.92-1.38 2.43-3.14 2.15-4.37-.7-8.76-1.36-13.13-2.05-6.1-1-12.19-2-18.28-2.95-10.48-1.65-21-3.22-31.43-4.92a27 27 0 0 1-7-1.84c-3.44-1.68-4.75-4.74-4.4-8.55zm73.79 16.21c1.13-6.38 2.21-12.27 3.15-18.18a2.34 2.34 0 0 0-1.21-1.82 14.2 14.2 0 0 0-3.54-.8c-4.47-.69-9-1.22-13.41-2-4.73-.88-6.92-4.14-6.24-8.9q.57-4 1.22-8a7.33 7.33 0 0 1 8.37-6.1c5.24.84 10.45 1.84 15.68 2.67 1.17.19 2.75.82 3.09-1.25.89-5.49 1.75-11 2.66-16.48.25-1.53-.24-2.17-1.86-2.37-4.31-.53-8.61-1.23-12.9-1.92-5.58-.89-11.14-1.84-16.71-2.75l-17.77-2.9c-3.69-.6-7.38-1.21-11.08-1.76-1.11-.16-2.21-.31-2.48 1.43-.93 6.1-2 12.17-3 18.27-1.27 8.07-2.43 16.16-3.7 24.23-.79 5-1.74 9.93-2.53 14.91-.3 1.88-.73 3.82 2.23 4.24 5.16.72 10.29 1.73 15.44 2.54 7.82 1.22 15.65 2.36 23.47 3.57 6.95 1.07 13.88 2.21 21.12 3.37zM384.53 268c-.9.71-1.78 1.45-2.71 2.11-1.51 1.07-3.09 2-4.56 3.16-.78.6-1.85 1.35-2 2.18-1.48 8.12-2.77 16.28-4.16 24.42-.38 2.22.25 3.36 2.67 3.68 4.56.61 9.08 1.48 13.61 2.31 1.46.27 2.06-.25 2.27-1.69q1.85-12.51 3.8-25c.27-1.7 0-2.82-1.63-3.88a6.49 6.49 0 0 1-2.82-3.85c-.41-2.65-2-2.9-4.47-3.44zm-35.19 2.29c-.35-.42-.91-1.05-1.43-1.72-1.23-1.6-2.82-3.06-3.53-4.87s-1.86-1.89-3.21-2-2.55-.83-3.62.95a7.3 7.3 0 0 1-3.81 3.25c-2.88.73-3.32 2.65-3.53 5-.1 1.13-.22 2.25-.39 3.37-1 6.53-2 13.05-3.15 19.57-.29 1.69.32 2.49 1.9 2.72 4.82.71 9.63 1.46 14.47 2.05a2.22 2.22 0 0 0 1.77-1.22c.57-2.27.89-4.6 1.26-6.91 1.07-6.53 2.12-13.06 3.27-20.14zm-.56 29.27c5.41.83 10.65 1.57 15.85 2.46 2.17.37 2.75-.7 3-2.51.69-4.91 1.42-9.81 2.16-14.7.48-3.18 1.09-6.34 1.43-9.53a3.61 3.61 0 0 0-.9-2.87 9.16 9.16 0 0 1-4-5.59c-.54-2.32-2.73-1.35-4.15-1.8-.59-.19-1.57.53-2.25 1q-2.57 1.83-5 3.83c-.71.58-1.69 1.27-1.83 2-1.43 7.77-2.72 15.57-4 23.37-.2 1.46-.2 2.84-.31 4.4zm41.48 31.23l-.87-.4c-.4 2.33-1.35 3.88-4 3.36-2.38-.47-4.79-.84-7.19-1.22-3.86-.61-7.72-1.25-11.6-1.78-1.72-.24-3.53-.1-4 2-.67 3.23-1.2 6.49-1.6 9.77-.22 1.82.82 3 2.65 3.28 5.4.9 10.81 1.75 16.21 2.68 6.44 1.12 7.74 2 8.72-6.72.42-3.62 1.12-7.26 1.68-10.91zm-78.26 31l11.15-70.31c-2.52-.2-4 .66-4.46 2.55-.62 2.34-1 4.76-1.36 7.15-1.46 8.65-2.91 17.3-4.32 26-1.56 9.61-3 19.23-4.6 28.85-.41 2.74.37 4.38 3.59 5.82zM608.86 516.32c1.88.72 2.69-.62 3.36-2.14 3.33-7.53 6.7-15.05 10-22.62 1.61-3.73 2.37-4 6.11-2.31 11.18 5 22.4 9.93 33.61 14.88 8.26 3.66 16.51 7.35 24.79 11 2.3 1 1.87 2.71 1.16 4.37-1.67 3.92-3.46 7.78-5.19 11.67l-16.32 36.7c-.74 1.66-1 3.13.34 4.8 1.62 2 1.28 4.52.07 6.83a88.9 88.9 0 0 0-5 11.13c-1.14 3.16-3.28 4.69-6.27 5.52a3.79 3.79 0 0 0-2.23 1.72c-2.61 5.59-5.1 11.24-7.56 16.9-1.15 2.65-2.17 3.2-4.86 2q-18.37-8.11-36.71-16.29c-7.71-3.42-15.37-7-23.17-10.14-4.86-2-8.74-6.8-5.48-13.66 5.4-11.39 10.27-23 15.37-34.56q4.64-10.48 9.33-20.94c1.51-3.35 4.66-5.12 8.65-4.86zm41.45 78.55c-.83-.47-1.53-1-2.29-1.29-4.92-2.2-9.87-4.33-14.78-6.56-4-1.81-5.41-5.48-3.72-9.54 1.14-2.73 2.3-5.45 3.58-8.12 1.87-3.89 5.69-5.23 9.67-3.49 4.78 2.09 9.64 4 14.29 6.39 2.42 1.22 3.27.23 4.1-1.68 1.93-4.47 3.79-9 5.87-13.38.85-1.81.48-2.53-1.3-3.31-11.32-4.94-22.58-10-33.87-15-7.23-3.19-14.47-6.33-21.86-9.56-.4.69-.78 1.25-1.06 1.86q-4.44 9.87-8.84 19.76c-4.89 11.05-9.73 22.13-14.64 33.18-1.51 3.4-1.55 3.29 2 4.81 7.74 3.35 15.46 6.77 23.17 10.2q14.66 6.51 29.3 13.06c1.47.65 2.48.67 3.24-1.15 2.24-5.36 4.68-10.64 7.14-16.18zm-39.16-69.24c5.36 2.36 10.39 4.51 15.35 6.8 1.58.73 2.15.09 2.73-1.23 3.44-7.87 7-15.71 10.32-23.62.35-.82-.28-2.13-.62-3.15-.61-1.82-1.78-3.57-1.93-5.41s-1.28-2.31-2.54-2.79-2.28-1.48-3.93 0c-1.48 1.3-3.79 1.64-5.7 2.49-.85.38-2 .8-2.33 1.51-3.79 8.29-7.5 16.67-11.35 25.4zm41.32 18.17a25.58 25.58 0 0 0 2.8 1.32 74.7 74.7 0 0 1 11.56 5.11c2.19 1.23 3.06.63 3.79-1 3.37-7.72 6.71-15.45 10.13-23.14.62-1.38.35-2.17-.54-3.4-1-1.44-1.36-3.41-2-5.13-.32-.83-.58-2.21-1.11-2.33-1.64-.38-2.91-2.75-5.14-.76a8.88 8.88 0 0 1-5 2.17 3.73 3.73 0 0 0-3.68 2.62c-.37.88-.68 1.79-1.07 2.66-3.21 7.15-6.42 14.36-9.74 21.88zm.22-39.55v.79c-2.17.85-4.33 2.31-6.53 2.38s-2.71 1-3.35 2.43c-1.46 3.34-2.94 6.68-4.4 10-2.14 4.91-4.27 9.82-6.48 14.89 5.24 2.36 10.22 4.59 15.18 6.85 1.51.69 2.23-.07 2.79-1.35 3.41-7.81 6.88-15.58 10.18-23.44.35-.84-.19-2.16-.55-3.18-.62-1.76-1.91-3.43-2-5.18s-.39-2.52-2-3a20.12 20.12 0 0 1-2.84-1.19zm11.2 71.59l-.73-.46c-1.11 2.91-2.84 2.54-5.08 1.5-5.59-2.59-11.28-5-16.94-7.4-1.94-.84-3.68-.51-4.66 1.46-1.23 2.49-2.33 5-3.31 7.64s-.26 4.18 2.2 5.29q8.63 3.88 17.31 7.66a4.25 4.25 0 0 0 5.56-2.16c1-2.21 2-4.42 3-6.66s1.76-4.57 2.65-6.87zm-54.3-55.69c-2.51-.57-4.31-.13-5.52 1.63a24 24 0 0 0-2.14 4.16c-3.5 8.14-6.89 16.33-10.43 24.44-4.21 9.64-8.55 19.23-12.8 28.85-1.2 2.72-.55 4.8 2 6.18zM520.25 593.22c-.46 4.65-1 11.14-1.75 17.61q-1.72 15.71-3.58 31.4c-.62 5.26-4.61 8.34-9.85 7.77q-17-1.86-34-3.73-21-2.33-42-4.72c-5.7-.66-11.42-1.3-17.06-2.3a7.8 7.8 0 0 1-6.33-8.64c1.38-12.2 2.86-24.39 4.29-36.59.58-4.93 1.11-9.86 1.7-14.79.54-4.52 3.77-7.53 8.3-7.22 6.51.45 13 1.22 19.5 1.92q13.11 1.41 26.21 2.93c10.72 1.25 21.43 2.56 32.14 3.83 4.76.56 9.53 1 14.27 1.63 6.43.9 7.91 2.62 8.16 10.9zm-99-17.42c-4.29-.13-5.88 1.55-6.25 5.06q-1.36 12.85-2.94 25.67c-.25 2-.19 3.4 2.38 3.44 1.55 0 3.08.54 4.64.7 6.49.69 13 1.31 19.48 2 8.56.92 17.12 1.89 25.68 2.85L486 618c8.39.94 16.78 1.85 25.16 2.8 2 .23 2.5-.71 2.63-2.55.25-3.47.79-6.91 1.2-10.37.66-5.51 1.41-11 1.92-16.53a5 5 0 0 0-4.59-5.61q-9.74-.86-19.47-1.87c-8.73-.92-17.46-1.93-26.19-2.89-7.18-.79-14.36-1.52-21.54-2.34-8.27-.95-16.56-1.97-23.88-2.84zm-10.48 46.45c-1.23 3.91-.89 4.45 2.85 4.88q12.57 1.42 25.14 2.9c7.25.85 14.5 1.77 21.75 2.58 6.92.77 13.85 1.42 20.77 2.17q14 1.52 28 3.11c1.26.14 2.16 0 2.57-1.47.68-2.46.16-3.21-2.59-3.47-6.66-.65-13.33-1.28-20-2q-20-2.17-39.93-4.45c-7.86-.9-15.71-1.95-23.57-2.83-5-.57-10.01-.95-15.01-1.41zm4.51-8.31v.06c-.35 0-.7 0-1-.06-1.54-.19-2.92-.42-3 1.94-.1 2.11.71 2.71 2.69 2.77 2.78.09 5.56.42 8.33.75 10.54 1.25 21.06 2.58 31.6 3.81 9.07 1.06 18.14 2.05 27.21 3.07l28.79 3.2c1.45.16 2.78.25 3-1.86.15-1.83-.38-2.79-2.29-3-3.55-.36-7.09-.82-10.63-1.21-6.05-.67-12.11-1.28-18.17-2-7.44-.86-14.86-1.81-22.3-2.65-6.48-.73-13-1.31-19.47-2-8.36-.89-16.57-1.87-24.78-2.82zm95.38 28.23a9.05 9.05 0 0 0-1.42-.4c-7-.85-14-1.72-21-2.51q-20.88-2.37-41.76-4.68-17.26-1.89-34.54-3.62c-.67-.07-1.77.14-2 .56a2.37 2.37 0 0 0 .31 2.15 5.7 5.7 0 0 0 2.81 2.07c4.38.71 8.79 1.17 13.2 1.64 6.32.69 12.65 1.26 19 2 7.87.88 15.72 1.85 23.59 2.76 8.56 1 17.11 2 25.68 2.9 4.07.43 8.16.76 12.24.91 2.73.05 3.68-.95 3.87-3.78zM213.15 398.07l-3.56.31v.74h3c-1 .83-1.29 1.3-1.71 1.43-8.65 2.61-17.3 5.23-26 7.76-8.18 2.38-16.39 4.68-24.59 7-8.46 2.38-16.93 4.72-25.39 7.09-4.69 1.31-9.41 2.52-14 4-6.44 2-10.56.24-12.5-6.22-3.17-10.58-6.07-21.24-9.08-31.87-1.33-4.68-2.56-9.39-4-14-1.81-5.8-.75-10.1 3.5-12.32a26.21 26.21 0 0 1 5.18-1.73c14.25-3.95 28.51-7.83 42.75-11.82 12-3.35 23.92-6.82 35.88-10.22 2.34-.67 4.68-1.36 7-1.93 5.13-1.23 8.94.59 10.53 5.53 2.16 6.7 4 13.52 5.88 20.3 2.32 8.2 4.49 16.44 6.93 24.6 1.46 4.82 1.69 8.49.18 11.35zM193 339.31l-2.46.7c-8.2 2.31-16.4 4.63-24.61 6.91s-16.59 4.54-24.88 6.84c-8.88 2.47-17.74 5-26.61 7.47-4.1 1.15-8.23 2.19-12.32 3.38-3.48 1-4.55 3.21-3.58 6.7 2.38 8.54 4.74 17.08 7 25.65.47 1.78 1.16 2.54 3.09 2 10.13-2.83 20.28-5.56 30.4-8.39s20.39-5.82 30.59-8.69 20.44-5.62 30.64-8.5c4.54-1.28 4.51-1.37 3.17-5.89-.25-.83-.39-1.7-.63-2.54-2.1-7.45-4.08-14.93-6.43-22.3-.37-1.43-2.31-2.39-3.37-3.34zm12.58 36.49l-98.19 27.5 1.47 4.49c5.88-1.62 11.58-3.17 17.26-4.76 8.63-2.42 17.24-4.88 25.87-7.3 8.29-2.32 16.58-4.62 24.87-6.93 8.71-2.43 17.4-5 26.14-7.28 4.21-1.11 4.42-1.27 2.63-5.72zM110 411.57c.17 1.16.05 2.19.49 2.81s1.61 1.44 2.22 1.28c9.32-2.47 18.62-5.06 27.9-7.68 12.13-3.43 24.23-6.94 36.36-10.35 10.12-2.84 20.29-5.55 30.39-8.46a3 3 0 0 0 1.51-2.4c-.05-1.18-.48-2.72-2.43-2.19-1 .27-2 .42-3 .7-8.62 2.42-17.24 4.87-25.86 7.29-8.12 2.27-16.25 4.51-24.37 6.78q-13.32 3.71-26.63 7.44c-5.41 1.53-10.82 3.13-16.58 4.78zm2.25 8.23c1.17 3.16 2.49 4 5.63 3.19 9-2.36 18-4.84 26.92-7.34 10.47-2.92 20.91-5.93 31.37-8.86 10-2.79 19.95-5.48 29.89-8.33a8.57 8.57 0 0 0 3.72-2.2c.62-.66.49-2 .69-3.09a9.54 9.54 0 0 0-2.89-.12c-8.8 2.41-17.58 4.93-26.37 7.39-7.95 2.23-15.91 4.41-23.86 6.63q-16.2 4.54-32.38 9.11-6.31 1.82-12.67 3.62zM537.7 370.67c-2.09-1-5-2.34-7.79-3.86q-25.54-13.91-51-27.9Q466.18 332 453.49 325c-4.87-2.68-6.21-7-3.6-11.89 4.29-8 8.67-15.87 13-23.81 3.5-6.41 7-12.81 10.44-19.26 3.31-6.23 7.51-7.72 13.69-4.37 7.98 4.33 15.73 8.95 23.66 13.33 9.11 5 18.34 9.74 27.47 14.69q14.79 8 29.49 16.2a7.78 7.78 0 0 1 3.19 10.79q-12.21 22.6-24.55 45.13c-1.61 2.9-4.16 4.57-8.58 4.86zm-56.46-103.42c-1.32 1.16-2.92 2-3.67 3.33-4.34 7.63-8.5 15.36-12.69 23.08-1.69 3.1-1.62 3.06 1.44 4.72q19.68 10.71 39.38 21.48c15 8.21 30.09 16.37 45.06 24.68 1.92 1.07 2.64.39 3.44-1.07 4.25-7.78 8.54-15.54 12.74-23.35 1.83-3.41.91-5.87-2.51-7.75-17.27-9.52-34.49-19.1-51.78-28.59-8.53-4.68-17.15-9.22-25.75-13.79-1.66-.89-3.38-1.64-5.66-2.74zm-22.11 36.95l89.22 48.8c3-3.05 2.9-3.93-.32-5.69l-20.61-11.24-51.74-28.27-14.27-7.8zm-1.62 3.49c-.61.95-1.53 1.85-1.74 2.89a2.81 2.81 0 0 0 1.35 2.18q22.37 12.4 44.81 24.65c13.35 7.31 26.71 14.59 40 21.93 1.77 1 2.86 1.3 4.07-.95 1.34-2.49-.71-2.68-1.82-3.36-2.3-1.39-4.76-2.53-7.12-3.83l-75.7-41.55c-1.11-.65-2.28-1.16-3.84-1.96zm-4.26 7.45c-1.18 3.47-.63 5.11 2 6.55 1.44.81 2.94 1.51 4.38 2.31q37.77 20.68 75.57 41.3a11.09 11.09 0 0 0 5 .93c.71 0 1.44-1 2.16-1.58a8.21 8.21 0 0 0-1.67-1.76c-4.86-2.71-9.77-5.33-14.65-8l-62.32-34.09c-3.41-1.87-6.84-3.7-10.46-5.66zM.62 141.48c-.95-2.65.18-3.73 2.26-4.3 10.4-2.85 20.8-5.68 31.18-8.58 8.12-2.27 16.22-4.64 24.33-7 2.76-.79 5.54-1.51 8.29-2.32 2.55-.76 3.44-2.37 2.82-5.66L.75 132.88c-.81-2.38-.77-3.56 2-4.31 14.93-4 29.78-8.36 44.66-12.59 5.94-1.69 11.89-3.32 17.78-5.13 3.79-1.17 3.81-1.46 2-5.42L1 123.82c-.92-2-.68-3.22 1.13-3.82 3.3-1.09 6.58-2.22 9.93-3.16 14.15-4 28.32-7.85 42.48-11.79 3.27-.91 6.49-2 9.77-2.84 1.36-.36 2.37-.74 1.78-2.41-.51-1.44-1.06-2.85-3.1-2.26-3.92 1.13-7.86 2.24-11.79 3.35l-20.58 5.84C22 109.13 13.51 111.55 5 113.9a39.44 39.44 0 0 1-4.21.71c-1.08-2.49-.09-3.56 1.94-4.12q12.32-3.41 24.63-6.84 14.95-4.18 29.88-8.39c.92-.26 1.84-.54 2.76-.78 4-1 4.15-1 3.08-5.1q-3.16-12-6.7-23.85c-1.3-4.37-3.24-5.32-7.7-4.06C33.42 65.76 18.2 70.12 3 74.37c-.76.21-2.33-.11-2.5-.57-.5-1.2-.44-2.59 1.33-3.09 7.46-2.07 14.9-4.19 22.35-6.28 8.21-2.28 16.44-4.43 24.62-6.87 4.82-1.41 9.49.8 10.9 5.74 2.85 9.95 5.52 19.95 8.31 29.91 1.73 6.19 3.47 12.39 5.34 18.54 1.51 5-.24 9.27-5.12 10.94-5.09 1.75-10.33 3.05-15.52 4.53q-12.42 3.53-24.84 7T3 141.2a15.68 15.68 0 0 1-2.38.28zM350.83 226.33c-17.16-.39-32-6.29-43.32-19.47-7-8.16-10.19-17.76-8.23-28.63a50.36 50.36 0 0 1 8.84-20.11 55.36 55.36 0 0 1 17.71-16.22c6.32-3.64 13-6.32 20.29-7 4.07-.39 5.35-3.23 3.27-6.67a31.24 31.24 0 0 1-3-6.62c-2.52-7.94 2.74-13.74 10.77-11.49s16.08 5.09 24 8.08c6.6 2.5 7.85 10.49 2.56 14.18a73 73 0 0 1-8.18 5c-2.94 1.52-3.66 4.19-1.42 6.44 12.69 12.76 18.32 28.19 16.63 46-1.19 12.48-5.67 23.55-16.92 30.59a38.92 38.92 0 0 1-23 5.92zm36.39-42.51c-.35-15.1-5.8-27.87-16.71-38.23a8.42 8.42 0 0 0-3.14-1.55c-4.93-1.64-9.89-3.22-14.84-4.8-1.2-.38-2.45-1-3.63-1a52 52 0 0 0-43.51 32.78c-4.44 11.26-4 22.29 3.88 31.81 13.15 16 30.35 22.07 50.74 18.76a29.41 29.41 0 0 0 19-10.93c6.25-7.88 7.87-17.2 8.21-26.84zm-14.79-49.68a16.87 16.87 0 0 0 9.43-5.16c2.17-2.36 1.79-4.8-.9-6.57a9.2 9.2 0 0 0-2.07-1.09c-7.89-2.66-15.78-5.35-23.71-7.89a4.3 4.3 0 0 0-5.51 4.24 16.35 16.35 0 0 0 3.9 9.76 4.31 4.31 0 0 0 1.89 1.16c3.06.92 6.18 1.65 9.22 2.63 2.6.85 5.14 1.93 7.74 2.92zm-4.88 6.25c.54-.53 1.57-1.08 1.64-1.74a2.6 2.6 0 0 0-1.23-2.15q-5.82-2.22-11.8-4a3 3 0 0 0-2.24 1 4 4 0 0 0 1.17 2.75 16.27 16.27 0 0 0 4.12 1.54c2.63.82 5.27 1.64 8.33 2.6zM214.79 538.55h2.61c4 .08 5.53-2.56 4.07-6.17a32.1 32.1 0 0 1-2.26-8.47c-.86-8 6.1-11.21 12.58-8.26 7.89 3.59 15.53 7.77 23.17 11.87a7.75 7.75 0 0 1 1.45 12.48 18.53 18.53 0 0 1-10.41 5 3.77 3.77 0 0 0-2.56 6.07c10.25 13.37 13.57 28.51 10.71 44.87-2 11.43-6.79 21.63-16.84 28.4-7.59 5.11-16.12 6.59-25.15 5.82a58.08 58.08 0 0 1-27.71-9.87c-9.24-6.17-16.33-14.14-19.9-24.76a31.26 31.26 0 0 1 .1-19.84c5.2-16.19 16.38-26.74 31.64-33.28a44.67 44.67 0 0 1 18.5-3.86zm1.29 88.33c3.19-.56 6.82-1 10.35-1.84a26.18 26.18 0 0 0 15.9-10.68 49 49 0 0 0 8.44-36.17 53.52 53.52 0 0 0-10.31-24.77 9.41 9.41 0 0 0-3.07-2.66 69.35 69.35 0 0 0-8.49-3.87c-3.8-1.37-6.61-5-11-4.92-2.15 0-4.29.44-6.44.62a50.26 50.26 0 0 0-28.37 12c-7.69 6.41-13.3 14.49-15.74 24.09a27.45 27.45 0 0 0 2.56 20c9.81 18.23 25.87 26.13 46.17 28.2zm6.85-102.43c.5 1.66 1.33 4.75 2.41 7.74.25.68 1.36 1.14 2.16 1.52s1.57.24 2.23.6c4.19 2.25 8.33 4.59 12.53 6.83a3.08 3.08 0 0 0 2.19.38 53.21 53.21 0 0 0 8.75-3.77c2.45-1.48 2.56-4.18.48-6.23a23.87 23.87 0 0 0-4.89-3.32c-1.65-1-3.41-1.71-5.13-2.54-4.83-2.36-9.61-4.83-14.51-7-3.21-1.46-6.2.75-6.22 5.79zm3.71 12.48c-.73.56-1.87 1-2.14 1.75a2.63 2.63 0 0 0 1 2.34c3.66 2 7.4 3.79 11.2 5.45.68.3 1.79-.4 2.7-.63-.31-.91-.37-2.12-1-2.68a18.4 18.4 0 0 0-4-2.44c-2.4-1.25-4.88-2.41-7.76-3.79zM785.28 470.2a27.34 27.34 0 0 1-3-.64c-5.54-1.87-10.57-.21-15.69 1.86-3.26 1.32-6.81 1.94-10.21 2.94a5.08 5.08 0 0 0-2 1.12c-9.6 9.08-15.34 20.06-16.63 33.33a50.91 50.91 0 0 0 3.64 25.31 13.55 13.55 0 0 0 1.91 3.68 4.81 4.81 0 0 0 2.93 1.38 58.26 58.26 0 0 0 6 0c1.67 0 2.43.77 2.09 2.47v.26c-.79 6.7-.12 7.45 6.64 9.25a50.69 50.69 0 0 0 22.49.79c.62-.11 2.05.79 2 1.06-.14 1-.71 2.58-1.21 2.62-5.53.41-11.12 1.1-16.6.62-4.84-.42-9.56-2.21-14.7-3.49v4.3c0 2.33-1.15 3.53-3.6 3.41-4.52-.22-9.05-.33-13.58-.56-3-.15-3.8-.9-3.53-3.87.45-4.94 1-9.87 1.66-14.78.27-2.15.59-2.25 5-2.88a15.31 15.31 0 0 0-.63-2.15 52.66 52.66 0 0 1-3.85-31.68 55.15 55.15 0 0 1 15.83-30.28c2.43-2.41 1.68-5.3-1.38-6.7a37.6 37.6 0 0 1-8.06-4.72c-5.17-4.19-4.37-10.94 1.68-13.85a112.69 112.69 0 0 1 12-4.43c3.94-1.37 7.93-2.6 11.88-3.95 3.63-1.24 7-1.16 10 1.62s3 5.95 1.72 9.36a60.62 60.62 0 0 1-3.31 7.31c-1.54 2.81-.3 5.46 2.88 5.91 1.89.26 3.72.91 5.61 1.15 2.49.37 2.62 1.89 2.02 4.23zm-16-26.38c-1.68.53-4.26 1.28-6.8 2.14-5.93 2-11.89 3.93-17.75 6.12-3.93 1.47-4.66 5.46-1.39 8a51.64 51.64 0 0 0 7.91 4.4 2.46 2.46 0 0 0 1.75-.05c4-1.46 8-2.85 11.89-4.53 2.62-1.13 6.31-.43 7.52-4.2.42-1.31 1.29-2.47 1.76-3.78 1.73-4.99.22-8-4.93-8.09zm-.48 18.68c-4.35 1.48-8.47 2.79-12.49 4.36-.58.23-.94 1.74-.87 2.62 0 .41 1.46 1.18 2 1 4.05-1.23 8.08-2.58 12-4.12a3 3 0 0 0 1.38-2.36c-.02-.51-1.34-1-2.06-1.49zm-20.4 88.38l-1.09-1.5c-.67.55-1.37 1.07-2 1.64-.81.72-1.62 1.46-2.37 2.24-.48.5-1.34 1.31-1.2 1.6a2.73 2.73 0 0 0 1.73 1.43c2.7.44 4.78-1.61 4.89-5.41zm-4.84-5.32l1.11-.18c-1-.74-2.21-2.2-3.08-2-1.18.21-2.24 1.59-3.16 2.64a2.79 2.79 0 0 0-.44 2 6.86 6.86 0 0 0 .9 1.92 9.2 9.2 0 0 0 2-1.19c.94-1 1.75-2.13 2.63-3.18zM785.09 111.35c.84 2.47.72 3.87-1.94 4.58-9.83 2.61-19.59 5.49-29.42 8.1-2.15.57-1.32 1.73-1.22 2.95.14 1.6.9 2.16 2.44 1.73L768 125l17.08-4.79c1.1 2.54.36 3.92-1.94 4.55l-20.37 5.61c-2.18.6-4.39 1.1-6.54 1.77-1 .32-2.33.68-1.62 2.33.55 1.28.53 3 2.87 2.34 6.6-1.91 13.24-3.66 19.86-5.49 1.93-.53 3.82-1.21 5.77-1.6.73-.15 2.16.14 2.29.55.4 1.23.42 2.63-1.36 3.11-3.86 1.06-7.7 2.16-11.55 3.24q-7.15 2-14.3 4.05a10.65 10.65 0 0 0-1.26.55c.21 2.51 1.84 3.5 3.9 3.18a89.17 89.17 0 0 0 9.36-2.2c4.94-1.32 9.85-2.74 14.75-4.11 1.16 3.18.86 3.74-1.95 4.52-6.7 1.86-13.4 3.72-20.09 5.64a8.34 8.34 0 0 1-10-5.82c-2.8-9.69-5.46-19.42-8.17-29.13q-3-10.78-6-21.57c-.69-2.45.64-6.2 3.17-7.43a65.92 65.92 0 0 1 9.42-3.63c5.22-1.6 10.52-2.95 15.79-4.4l18.12-5c.62 2.26.81 3.68-1.84 4.38-9.07 2.41-18.08 5.08-27.12 7.62-3.51 1-7.06 1.84-10.56 2.86a4.7 4.7 0 0 0-3 5.78c2.57 8.94 5.12 17.88 7.59 26.85.5 1.8 1.13 2 2.94 1.48 8.67-2.55 17.42-4.88 26.13-7.29z"/>
      <path d="M628.45 681.84c.23-19.4 15.28-35.8 35.82-35.7 19.92.1 35.47 15.28 35.55 35.64.08 20.82-16.54 35.59-35.76 35.75s-35.65-16.34-35.61-35.69zm35.91-31.77c-17.24-.55-31.84 14.5-32 31.4-.14 17.33 14.33 32 31.32 32.12A32.09 32.09 0 0 0 696 682.15c.14-17.67-14.46-32.25-31.64-32.08zM427.45 708.5c.22-19.17 15.14-35.75 35.9-35.61 19.77.13 35.33 15.32 35.43 35.76s-16.84 35.62-35.85 35.62c-19.34 0-35.52-16.34-35.48-35.77zm4.1.09c-.73 17.21 14.56 31.75 31.53 31.74 17.3 0 31.81-14.27 31.9-31.55a32.08 32.08 0 0 0-31.73-32c-17.1-.18-32.39 14.38-31.7 31.81zM586.5 156.21c-.51.77-.92 2-1.78 2.58-8.38 5.13-16.83 10.15-25.28 15.17-2.06 1.22-3.27.16-4-1.79q-2.74-7.89-5.42-15.79c-1.28-3.79-2.43-7.62-3.8-11.37a3 3 0 0 1 1-3.89c4.27-3.29 8.49-6.66 12.83-9.85a3.58 3.58 0 0 1 2.86-.35c5.66 2 11.27 4.12 16.9 6.18a4.52 4.52 0 0 1 3.32 3.85c.87 4.95 2.17 9.85 3.37 15.26zm-25.87-6.14l-.79 17 10.67-13.44zm6.75-3.31l9.52-6.6-12.57-4.65zm-4.09.12l-2.88-11.12-8.86 6.82zm6.9 2.56l11.81 4.32-2.34-10.83zm-3.73 15.45l.25.36 12.93-7.77c-4.57-2.7-5.18-2.74-7.09-.38-2.07 2.57-4.06 5.2-6.09 7.8zm-10.79-4.07l.65-.09c0-2.31-.1-4.63 0-6.94.29-5.39.34-5.39-4.62-7-.13 0-.31.06-.74.16zM337.41 751.68c1.28-6 2.34-11.18 3.57-16.33a3.59 3.59 0 0 1 1.86-2.17c6-2.41 12-4.74 18-6.91a3.93 3.93 0 0 1 3.09.61c4.37 3.15 8.67 6.41 12.86 9.8a3.33 3.33 0 0 1 .77 2.9c-2.87 9.21-5.85 18.37-8.88 27.53-.94 2.85-2.14 3.29-4.69 1.81-8.13-4.7-16.26-9.39-24.3-14.23-1.09-.69-1.69-2.18-2.28-3.01zm26.15 10v-16.5l-10.14 3.93zm-7-19.46l2.79-11.3-12.44 4.68zm15.73-4.41l-8.92-6.65-2.78 11zm-28.15.58L342 749.22l11.54-4.38zm12 21.56l.57-.64c-2.18-2.74-4.32-5.52-6.58-8.18-.3-.36-1.32-.37-1.9-.19-1.34.43-2.62 1.08-4.33 1.82zm11.75-4.08l.42.1 4.69-14.2a16.9 16.9 0 0 1-2.12.67c-3 .46-4 2.23-3.6 5.14.36 2.74.42 5.52.6 8.27zM422.44 216.73c.69-1.83 1.27-3.37 1.84-4.91 1.27-3.42 2.51-6.86 3.83-10.26.64-1.65 1.45-3 3.54-3.39 5.73-1 11.43-2.24 17.13-3.41a4.49 4.49 0 0 1 4.65 1.51q4.63 5.12 9.54 10c1.74 1.72 2.07 3.16.82 5.46-4.49 8.24-8.71 16.62-13.07 24.93-1.23 2.35-2.25 2.59-4.26.93q-11.25-9.31-22.42-18.71a11.58 11.58 0 0 1-1.6-2.15zm26.9-2.93l-10.51 2.2 7.82 13.78.7-.05zm-1.66-14.8l-13.05 2.58 8.44 8.06zm3.81.75L447 210.4l12.15-2.59zm-11.71 12.08l-8.45-7.87-3.79 10.27zm19.3.59c-3.47-.46-5.84.42-6.12 2.41-.47 3.41-.66 6.86-1 10.29l.42.12zm-19.15 14.86l.67-.44c-1.44-2.53-3-5-4.28-7.61-1.09-2.2-2.45-3-4.74-1.8a18.31 18.31 0 0 1-2.52.82zM714.27 616.11l1.71-5c1.2-3.54 2.26-7.14 3.67-10.59a5.29 5.29 0 0 1 2.89-2.89c5.71-1.54 11.51-2.74 17.27-4.09a5.12 5.12 0 0 1 5.34 1.77c3.09 3.31 6.35 6.46 9.59 9.62 1.32 1.29 1.88 2.51 1 4.36-4.34 8.82-8.58 17.69-12.9 26.52-.79 1.61-2 2.08-3.58.82-7.73-6.07-15.51-12.09-23.23-18.18a11 11 0 0 1-1.76-2.34zm24.85 12.83l.53-.3 1.15-16.19-10.23 2.55zm-4.5-20.45l4.18-10.82-13 3zm3.86.66l12-2.9-7.81-7.48zM722.79 603l-3.6 10.48 12.18-2.81zm-2.11 14.36l11.39 8.8.53-.5c-1.84-3.1-3.66-6.21-5.56-9.27a1.53 1.53 0 0 0-1.32-.46c-1.52.35-3 .84-5.05 1.44zm30.28-7a37.36 37.36 0 0 0-4.77.89 2.37 2.37 0 0 0-1.36 1.61c-.37 3.51-.56 7-.81 10.56l.44.11zM318.16 46.65a10 10 0 0 1 2.57 1.35c3.54 3.33 7 6.79 10.46 10.16 1.63 1.57 2 2.95.82 5.23-4.08 8-7.82 16.11-11.7 24.17-.3.63-.7 1.2-1 1.83-.82 1.64-1.91 1.85-3.35.73q-8.23-6.4-16.49-12.77c-2.27-1.76-4.5-3.57-6.8-5.28a3.27 3.27 0 0 1-1.27-4.28c1.61-4.32 3.1-8.68 4.52-13.06a5.51 5.51 0 0 1 4.51-4.11c5.77-1.19 11.52-2.57 17.73-3.97zm-11 21.76L315.45 82l.63-.12L317.69 66zm-4.73-14.22l8.75 7.72 4.29-10.72zm5.48 10l-8.54-7.68-3.61 10.54zm11.3-12l-4.06 10.39 11.71-2.86zm-21.84 18.7L309 79.94l.46-.46c-1.87-3.07-3.71-6.17-5.66-9.2a2 2 0 0 0-1.65-.8 46.51 46.51 0 0 0-4.78 1.41zm23.22 5.57l.74.26 6-12.58c-5.32.36-5.42.34-6.16 4.82-.39 2.47-.4 5.04-.58 7.5zM227.92 247.23c3.45-1.39 6.84-3 10.37-4.12 14.35-4.72 31.82 1.75 39.78 14.53 4.07 6.53 6.34 13.61 5.86 21.29A35.65 35.65 0 0 1 259 311.09c-18.23 5.56-35.42-3.16-43-18.65a35.19 35.19 0 0 1 8.48-41.68c.77-.69 1.43-1.49 2.14-2.24zm52 30c.4-17.17-13.5-31.67-31.5-31.88a31.86 31.86 0 1 0 31.5 31.88zM276.9 385.46a12.89 12.89 0 0 1 2.07 1.47c3.61 3.66 7.14 7.4 10.74 11.07a2.88 2.88 0 0 1 .67 3.75c-4.51 8.64-9 17.29-13.5 25.92-1.26 2.4-2.15 2.62-4.24.93-7.64-6.19-15.26-12.41-22.79-18.74a3.56 3.56 0 0 1-.84-3.12c1.74-5.1 3.67-10.14 5.72-15.12a4 4 0 0 1 2.4-2c6.27-1.42 12.59-2.66 18.9-4zm-4 35.6l.57-.09 1.6-13.66c.21-1.81-.7-2.4-2.32-2-2.43.56-4.84 1.19-7.74 1.91zm-3.85-20.34L273.6 390l-13 2.76zm8.2-9.46L273 401.41l12.37-2.61zM257.36 395l-3.68 10.41 12.18-2.41zm9.28 23.77l.5-.36c-1.44-2.43-2.93-4.83-4.31-7.3-1.9-3.41-4.17-3.95-7.48-1.51zM285 403.68l-.71-.92c-1.61.71-4.27 1.09-4.62 2.19-1 3.26-1.11 6.82-1.57 10.25l.89.22zM507.63 126.86a35.57 35.57 0 1 1-71.1-1.48c.58-18.65 16.5-34.36 35.75-34.3 19.56.06 35.84 16.87 35.35 35.78zm-35.43 31.7c16.18.33 31.68-13.38 31.65-31.81a31.83 31.83 0 1 0-31.65 31.81zM758.4 174.16a7.94 7.94 0 0 1 2 1.11c3.85 3.77 7.71 7.54 11.37 11.48a3.79 3.79 0 0 1 .56 3.38c-4.1 8.73-8.35 17.39-12.63 26-1.31 2.64-2.18 2.79-4.6.93-7.44-5.73-14.81-11.55-22.28-17.23-1.86-1.41-2.13-2.79-1.3-4.93 1.54-4 2.79-8 4.14-12.09.74-2.22 1.71-4 4.38-4.55 6.01-1.18 12.01-2.65 18.36-4.1zm-.92 19.54l-10.41 2.3 8.41 13.8.55-.22zm-15.08-11.86l8.71 7.76 4.31-10.87zm-6.76 12.92l12.1-3-8.45-7.76zm19.72-5.41l.53.68 10-2.4-6.66-7.84zM749.44 208l.31-.25c-1.93-3.23-3.82-6.49-5.85-9.65a2.48 2.48 0 0 0-2-.82 45 45 0 0 0-4.92 1zm10.79-3.4l.77.23 6.16-13c-3.51-.23-5.52.58-5.73 2.21-.43 3.56-.81 7.08-1.2 10.59zM418.19 504.6c2.32.47 4.11.8 5.89 1.19 4.58 1 9.19 1.94 13.72 3.15a4.63 4.63 0 0 1 2.79 2.35c2 5 3.78 10.09 5.37 15.24a3.92 3.92 0 0 1-1.3 3.23c-5.49 4.54-11.12 8.92-16.71 13.34-2 1.62-4.12 3.2-6.13 4.87-1.7 1.41-2.94 1.18-3.92-.8q-5.39-10.85-10.81-21.68a25.74 25.74 0 0 0-1.82-3.74c-1.63-2.25-1-3.83.86-5.6 3.3-3.1 6.36-6.44 9.58-9.62a21.73 21.73 0 0 1 2.48-1.93zm3.05 35.29l.6.16 8.17-13.7-10.53-2.25zm13.35-27.77l-13-2.8 4.49 10.7zM418 510.81l-8.25 7.08 12.25 2.68zm19.66 3.56l-8.45 8 12.15 2.61zM416.51 536h.33c-.12-1.2-.28-2.39-.36-3.59s-.07-2.6-.16-3.9c-.35-5.09-1-5.76-6.06-6.37-.07 0-.14.08-.46.27zm11.11 1.81l.41.4 11.58-9.21c-3.63-1.91-5.38-2-6.5-.29-1.9 2.99-3.67 6.04-5.49 9.05zM612.95 313.72c2.32.47 4.11.8 5.89 1.19 4.58 1 9.19 1.94 13.72 3.15a4.63 4.63 0 0 1 2.79 2.35c2 5 3.78 10.09 5.37 15.24a3.92 3.92 0 0 1-1.3 3.23c-5.49 4.54-11.12 8.92-16.71 13.34-2 1.62-4.12 3.2-6.13 4.87-1.7 1.41-2.94 1.18-3.92-.8q-5.39-10.85-10.81-21.68a25.74 25.74 0 0 0-1.82-3.74c-1.63-2.25-1-3.83.86-5.6 3.3-3.1 6.36-6.44 9.58-9.62a21.73 21.73 0 0 1 2.48-1.93zM616 349l.6.16 8.17-13.7-10.53-2.25zm13.35-27.77l-13-2.8 4.49 10.7zm-16.55-1.31l-8.25 7.08 12.24 2.68zm19.66 3.56l-8.45 8 12.15 2.61zm-21.19 21.58h.33c-.12-1.2-.28-2.39-.36-3.59s-.07-2.6-.16-3.9c-.35-5.09-1-5.76-6.06-6.37-.07 0-.14.08-.46.27zm11.11 1.81l.41.4 11.58-9.13c-3.63-1.91-5.38-2-6.5-.29-1.87 2.97-3.67 6.02-5.5 9.03zM198.58 687.49c-.83 1.81-1.59 3.55-2.42 5.25q-5.39 11-10.83 22c-1.44 2.93-2.4 3.2-4.92 1.23-7.39-5.79-14.74-11.63-22.14-17.42-1.66-1.3-2.11-2.56-1.24-4.7 1.83-4.51 3.16-9.21 5-13.73a5.11 5.11 0 0 1 3-2.72c6-1.53 12-2.81 18.07-4a3.87 3.87 0 0 1 3 .8c3.85 3.66 7.57 7.46 11.29 11.25a10.83 10.83 0 0 1 1.19 2.04zm-15.52 5c-3.37.71-6.23 1.26-9 2-.28.07-.6 1.41-.35 1.85 2.41 4.19 4.93 8.32 7.82 13.11zm-6.34-4.11l4.34-10.72-13.06 2.89zm8-9.49L180.64 689l12-2.84zm-23.41 14.51l12.11-2.83-8.47-7.7zm31.57-2.64l-.52-.78c-1.74.79-4.66 1.25-5 2.44-1.06 3.72-1.14 7.71-1.61 11.6l.56.14zm-29.91 6.54l11.92 9.45a67 67 0 0 0-5.48-9.84A3 3 0 0 0 167 696a20.94 20.94 0 0 0-4.05 1.31zM732.26 244.61c20-.42 36.39 17.43 35.34 37.21a35.82 35.82 0 0 1-38 33.86c-18-1-34.12-17.13-33.22-37.32.8-18.79 17.08-34.3 35.88-33.75zm31.31 35.6c.75-17-13.9-32-31.63-32a31.85 31.85 0 0 0 0 63.7c17.84-.01 32.14-14.64 31.63-31.7zM152.28 99.93a8.31 8.31 0 0 1-1.22 2q-10.95 10.27-22 20.45c-1.56 1.45-2.66.67-3.55-.81q-4.25-7-8.49-14.08c-2.11-3.5-4.17-7-6.33-10.51-1.09-1.75-1.26-3.24.23-4.92 3.23-3.65 6.35-7.39 9.46-11.15a4.18 4.18 0 0 1 4.32-1.67q8.36 1.36 16.78 2.4c1.9.24 3.3.86 4.09 2.69 2.07 4.79 4.2 9.55 6.29 14.33.14.34.23.64.42 1.27zm-24.14 14.13l.76.11 7-14.32-10.49-1.38zm11.31-28.76l-13.26-1.87 5.27 10.4zm-17.13-.9l-7.09 8.66 12.36 1.64zm24 13.08l.53-.71-4.16-9.36-7.84 8.29zM134.15 112l.35.22 11.2-10.52c-4.27-2.12-5.61-1.68-7.49 2.2-1.31 2.75-2.7 5.43-4.06 8.1zm-18.87-14.91L123 110a54.72 54.72 0 0 0-1.46-10.68 3.28 3.28 0 0 0-2-1.81 21.06 21.06 0 0 0-4.26-.42zM637.94 42.22c18.43-1 35.79 15.85 35.6 35.63-.18 19.28-16.58 35.73-36 35.38a35.85 35.85 0 0 1-35.34-35.81c-.01-19.33 16.8-36.13 35.74-35.2zm-.14 3.46c-17.61.49-31.72 13.91-31.73 31.87 0 17.66 13.17 31.81 31.56 31.93 18.67.12 31.78-14.09 32-31.76.3-17.48-14.34-32.02-31.83-32.04zM69.39 416.91a8.42 8.42 0 0 1-1.5 2q-11.47 8.6-23 17.09c-3 2.16-3.69 1.85-5.17-1.47-3.93-8.81-7.94-17.58-11.77-26.42a3.27 3.27 0 0 1 .75-2.83c3.59-3.64 7.26-7.22 11.09-10.61a4.74 4.74 0 0 1 3.61-.8c6 1.23 12.05 2.6 18 4.17a4.83 4.83 0 0 1 2.88 2.64c1.78 5 3.26 10.09 4.84 15.15.04.17.1.44.27 1.08zm-26.78-4.38l1.32 16.93 9.15-14.32zm2.39-15l4.32 11.17 8.57-7.59zm-.76 11.31l.58-.68c-.95-2.77-1.85-5.55-2.91-8.28a1.78 1.78 0 0 0-1.61-.47c-2.34 2-4.58 4.08-7.35 6.61zm16.9-5.42l-8.7 7.63 12.08 3zm1.69 14.49a36.82 36.82 0 0 0-4.52-1.46 2.32 2.32 0 0 0-1.93.78c-2.12 3.1-4.11 6.29-6.15 9.44l.38.33zM39 423.63l.75-.27c-.34-3.35-.61-6.7-1.09-10a3.19 3.19 0 0 0-1.5-2.08 29.25 29.25 0 0 0-4.58-1.42zM224.86 106.94c-18.25 1.14-35.86-17.13-35.65-35.49.22-19.55 16.86-35.63 35.87-35.63 19.35 0 35.51 17.1 35.55 35.63.04 19.43-16.78 36.28-35.77 35.49zm31.93-35.48c-.29-16.85-12.83-31.89-32-31.82-18.27.07-31.61 14-31.63 31.81 0 18.49 13.88 31.82 31.7 31.89 18.32.06 31.69-14.28 31.93-31.88zM.69 106.08c-.77-2.38-.65-3.82 2-4.51 6.89-1.81 13.72-3.85 20.58-5.79 2.17-.61 4.35-1.21 6.54-1.77s2.75-2 2.55-4.11c-.36-3.9-.62-7.8-.8-11.7a12.86 12.86 0 0 1 .62-2.93L1 83.94c-1.21-2.78-1-3.64 1.51-4.38 6.75-2 13.54-3.85 20.32-5.76 4.6-1.3 9.21-2.54 13.78-3.95 1.7-.52 2.86-.62 3.79 1.25s2.39 2.81 4.73 2a10.52 10.52 0 0 1 4.64-.47 3 3 0 0 1 2 2c.47 4.31.68 8.64 1 13 .06.87.1 1.74.22 2.6.38 2.79 0 3-2.73 3.46-6.64 1.23-13.27 2.59-19.82 4.21-7 1.74-13.9 3.85-20.85 5.78-3.02.8-5.92 1.58-8.9 2.4zm43.72-27c-1.07-.63-1.74-1.34-2.41-1.35-1.45 0-3.39-.17-4.23.65s-1.08 2.88-1.28 4.42c-.05.39 1 1.28 1.53 1.3a2 2 0 0 0 1.5-1.31 2.41 2.41 0 0 1 2.3-2.33 10.42 10.42 0 0 0 2.59-1.37zM783 528.82a11.63 11.63 0 0 1-8.93-1.83c-3.37-2.08-4.54-2.05-8.32.82a11 11 0 0 0 8.85 5 38 38 0 0 0 7.55-.33c2-.3 2.66.84 2.86 2.2a19.58 19.58 0 0 1-.29 4.34c-.79-.14-2.2-.13-2.27-.44-.49-2-1.84-1.71-3.27-1.61-7.69.56-13.77-2.11-18-8.8-1.21-1.92-.95-2.88 1.19-3.66a68.45 68.45 0 0 0 8.16-3.46c1.74-.91 2.67-.39 3.72.93a6.2 6.2 0 0 0 3 2l-.74-2.38c-1.49-4.73-1.49-4.71-6.42-5-9.84-.67-15.51-7-15.37-14.85.1-5.87 3.73-9.94 8.54-12.94 1.11-.69 2.08-1.17 1.37-2.81-.19-.43.44-1.63 1-1.87a31.61 31.61 0 0 1 5.41-1.89c.73-.18 2.16 0 2.31.38.86 2.16 2.51 1.61 4.14 1.66 1.89.06 3.77.4 5.65.65 3 .39 2.7 2.29 2.34 3.69h-12.13a5.61 5.61 0 0 1-2.08-.92c-.47-.24-.91-.55-1.37-.83-.16.44-.57 1-.45 1.31.58 1.74-.84 2-1.8 2.68a46.53 46.53 0 0 0-5.4 3.58 9.89 9.89 0 0 0-3.13 10.92c1.45 4.49 5 6.82 9.66 7.12 2.17.14 4.36 0 6.54.1.78 0 2 .32 2.23.81 1.88 4.95 3.6 10.02 5.45 15.43zM.74 466.46c3 1.16 5.95 2.09 8.71 3.44C24.1 477.09 34.2 488.42 39 504c4.63 15-.41 27.37-11.42 37.72-7.13 6.7-15.72 10.82-25.14 13.22A2.33 2.33 0 0 1 .4 554a2.06 2.06 0 0 1 1.69-2.9A55.53 55.53 0 0 0 19 543.68c8.36-5.51 14.64-12.69 17.08-22.56a30.69 30.69 0 0 0-1.67-19c-5.17-13-13.91-22.77-26.63-28.8a28.28 28.28 0 0 0-5-2.12c-2.63-.61-2.89-2.08-2.04-4.74zM574.41 654.83a24.68 24.68 0 0 1-15.4-6.45c-2.26-2.12-4.05-4.58-3.41-8 .92-4.93 2.51-9.38 8.33-10.29a25.56 25.56 0 0 1 22.92 7.23c2.2 2.15 2.71 4.77 2 7.91-1.76 8.34-6.85 9.61-14.44 9.6zm-6.13-21a7.65 7.65 0 0 0-2.59 0c-1.69.65-4 1.17-4.74 2.48-1.11 1.88.78 3.54 2.29 4.72a22 22 0 0 0 18.4 4.46c1.26-.24 3.19-1.41 3.28-2.3a5.88 5.88 0 0 0-1.78-4.2c-4.14-3.91-9.27-5.31-14.86-5.2zm14.2 15.82c-8.07.74-8.07.74-21.6-5.1 3.68 5.19 14.76 7.99 21.6 5.05zM375.48 662.59c6.78.63 12.78 2.21 18 6.7 4.8 4.15 1.86 15-3.54 16.8-8.81 2.94-16.79 1.41-24-4.31-2.53-2-4.1-4.57-3.63-8.13.7-5.31 2.82-9.28 8.52-10.37 1.61-.28 3.26-.49 4.65-.69zm7.59 15.9c1.56-.09 3.24.15 4.66-.35s3.45-1.5 4-2.79c.4-1-.76-3.2-1.86-4.06-5.95-4.68-12.8-5.59-20-3.71-3.18.83-3.57 3.76-1 6a20.67 20.67 0 0 0 14.2 4.9zM367.7 678c3.54 5.72 19.21 7.24 21.12 3.74-5.02 1.65-8.99.95-21.12-3.74zM162.44 298.45c-10.5 0-14.58-3.46-15.22-11.59-.3-3.8 2.43-6.44 5.33-8.46a27.12 27.12 0 0 1 18.45-5.17c3.43.32 6.64 1.47 8.09 4.86 1.83 4.3 3.26 8.69-.81 12.8-5.06 5.11-11.19 7.4-15.84 7.56zm-5.26-8.7c1.62-.12 2.84-.16 4-.3 5-.59 9.46-2.34 12.93-6.07 2.45-2.64 1.65-5.08-1.8-5.92-4.23-1-8.31-.25-12.26 1.22-3.19 1.19-6.24 2.72-8.24 5.67-1.33 2-.84 3.78 1.39 4.58a25.59 25.59 0 0 0 3.98.82zm-1.77 3.94c6 2.87 19.49-1.77 20.92-7-5.84 5.18-12.8 7.25-20.92 7zM51 160.18c6.65 1 14.18 3.09 18.85 10.48 2.89 4.58-.43 12.71-5.49 14.6-8.24 3.08-21.08-2.24-25.29-8.75A8.87 8.87 0 0 1 38 169c1.74-6.47 4.84-8.89 13-8.82zm8.78 17.32a36.42 36.42 0 0 0 4.1-.24c3.1-.58 4.09-3.06 2.31-5.61-3.58-5.15-14.78-8.94-20.72-7-2.67.87-3.34 2.44-1.68 4.71 4.09 5.64 10.13 7.41 15.98 8.14zm-17.65-4c2.06 5.16 12.95 10.25 20.38 8.11-7.59-.61-14.38-2.39-20.39-8.08zM265.12 137.23c6.91.68 13.28 2.63 18.36 7.69 2.78 2.77 3.75 5.89 2.56 9.75-1.29 4.19-3.37 7.57-8.07 8.2-9.16 1.23-16.78-1.87-22.83-8.76-3.44-3.92-1.75-8 0-12 1.59-3.6 5-4.28 8.39-4.88a9.14 9.14 0 0 1 1.59 0zm.41 4h-1.57c-1.93.06-4.09-.07-4.89 2.16s.57 3.91 2.13 5.23a22.42 22.42 0 0 0 17.38 5.62c1.46-.16 3.58-1.11 4-2.21s-.59-3.21-1.6-4.27c-4.17-4.31-9.52-6.16-15.46-6.49zm-7.65 9.67c3.25 5.73 12.8 9.51 19.9 7.72-7.78-.56-14.41-2.62-19.91-7.67zM556.4 74.23c-1 6.29-3.94 12.12-10.8 11.94-8.43-.22-15.25-3.81-20.56-10.57-4.49-5.71.62-17.16 8.93-16.5 8.88.7 16.3 4 21.17 11.82a15.35 15.35 0 0 1 1.26 3.31zm-8.4 3.55c.87-.36 3.13-.6 3.87-1.8.63-1 0-3.53-.95-4.66A22.16 22.16 0 0 0 533.71 63c-1.37 0-3.42.7-3.94 1.71s0 3.14.8 4.25c4.02 5.54 9.79 8.04 17.43 8.82zm-.11 4.16c-9.14-1.48-10.9-2.36-20.19-9.91 2.19 5.97 11.76 10.88 20.22 9.92zM224 479a22.87 22.87 0 0 1-16.87-6.24c-3.66-3.38-2.86-7.34-1.7-11.37 1.05-3.68 3.78-5.3 7.33-6.19 7.14-1.79 13.59 0 19.74 3.45 4 2.26 6.3 6.2 5.55 9.19-2.05 8.27-4.31 10.7-10.39 11.14-1.21.08-2.43.02-3.66.02zm-5.87-21a51.39 51.39 0 0 0-7.15 1.94c-2.13.9-2.3 2.68-.79 4.47a11.1 11.1 0 0 0 2.29 2.11c5.7 3.77 12 4.38 18.49 3a4.71 4.71 0 0 0 3.07-2.66c.27-.94-.71-2.64-1.63-3.46-3.98-3.57-8.87-4.87-14.27-5.4zm-9.4 10.53c4.28 6.12 15.62 8.73 22.57 5.18a28.67 28.67 0 0 1-22.57-5.17zM682.49 441.19c6.45 1.08 14.24 3.06 18.74 10.88.84 1.45.81 3.67.53 5.43a15.43 15.43 0 0 1-2.14 5.54c-2.12 3.43-5.93 4.19-9.39 4.08a26.4 26.4 0 0 1-17-6.35c-4.56-4-5.4-7.4-3.31-13 1.82-4.91 4.64-6.62 12.57-6.58zm9 17.39a23.23 23.23 0 0 0 3.85-.48c3-.91 3.67-3.33 1.74-5.84-3.83-5-14-8.43-20.15-6.79-2.95.79-3.68 2.57-1.86 5 4.15 5.53 10.24 7.12 16.42 8.11zm-18-3.64c3.39 6.62 18.5 10.63 21.27 6.91-7.89 1.08-14.57-1.85-21.26-6.91zM452.17 367.79a37.77 37.77 0 0 1 6.21 1.6c4.56 1.92 6.8 10.35 4.1 14.55-3 4.68-7.64 7-12.72 8.48a24.65 24.65 0 0 1-12.05.4c-6.32-1.27-10.11-12.69-4.82-17.44s11.46-6.97 19.28-7.59zm-12 17.07c6.93-.56 12.55-2.09 16.81-6.73.84-.91 1.73-2.73 1.35-3.58a5.31 5.31 0 0 0-3.44-2.29 20 20 0 0 0-13.67 2 28.9 28.9 0 0 0-6.77 5.49c-1.26 1.26-.81 2.91.86 3.63a39.28 39.28 0 0 0 4.87 1.48zm-1.41 4c7.82 1.85 18.1-1.84 20.24-7.25-5.8 5.32-12.8 6.83-20.23 7.25zM76.06 694a37.77 37.77 0 0 1 6.21 1.6c4.56 1.92 6.8 10.35 4.1 14.55-3 4.68-7.64 7-12.72 8.48a24.65 24.65 0 0 1-12.05.4c-6.32-1.27-10.11-12.69-4.82-17.44s11.47-7.02 19.28-7.59zm-11.98 17c6.93-.56 12.55-2.09 16.81-6.73.84-.91 1.73-2.73 1.35-3.58a5.31 5.31 0 0 0-3.44-2.29 20 20 0 0 0-13.67 2 28.9 28.9 0 0 0-6.77 5.49c-1.26 1.26-.81 2.91.86 3.63a39.28 39.28 0 0 0 4.86 1.48zm-1.41 4c7.82 1.85 18.1-1.84 20.24-7.25-5.82 5.34-12.81 6.86-20.24 7.25zM539.07 240.71c-7.56-.4-14.27-2.63-18.94-8.69s-.94-15.07 6.38-16.66c7.85-1.7 19.91 3.09 23.81 9.47 3.59 5.85-.9 14.87-7.74 15.54zm2.12-8.52a3.88 3.88 0 0 0 1.55 0c1.64-.8 4.31-1.49 4.56-2.67.32-1.46-.92-4-2.28-4.93a33.3 33.3 0 0 0-9.7-4.72 24 24 0 0 0-9.24-.23c-2.87.38-3.45 2.35-1.84 4.77a10.73 10.73 0 0 0 2 2.32c4.37 3.54 9.52 4.9 14.94 5.47zm2.88 3.5c-7.89.85-14.69-1.7-21.13-6.69 3.06 5.92 14.68 9.5 21.12 6.7zM702.77 112.86a74.05 74.05 0 0 1 8.86 2.09 6.94 6.94 0 0 1 3.45 3.22c4.38 8.83 1 13.73-8.15 18.13a24.42 24.42 0 0 1-14.52 2c-3.81-.59-6.52-2.38-7.66-6.39-2.1-7.36 1.24-13.54 8.65-15.79 3.11-.97 6.14-2.12 9.37-3.26zm-8.64 17.63a86.57 86.57 0 0 0 9.1-2.46 26.88 26.88 0 0 0 6.22-3.72c1.47-1.09 3.12-2.84 2-4.6a6.55 6.55 0 0 0-4.66-2.73c-6 .09-12.06 1-16.74 5.35-1.32 1.24-2.09 3.08-3.12 4.64 1.49.94 2.94 2 4.48 2.79a13 13 0 0 0 2.72.73zm-3.71 3c7.38 2.79 18.12-.14 21.63-6.18-6.68 5.18-13.72 7.22-21.63 6.18zM785.14 102.24c.9 2.82.36 4.1-2.31 4.72-4.73 1.11-9.38 2.57-14 4-1.66.51-2.74.41-3.57-1.35-1.43-3-4.24-3.77-7.22-3.65-1.66.07-2.44-.33-2.65-2a11.84 11.84 0 0 0-.63-1.71c-.77-2.62-1.66-5 1.92-6.7 2.29-1.07 2.86-3.71 3.06-6.29a3.23 3.23 0 0 1 1.64-2.41c7.57-2.26 15.2-4.34 22.81-6.45a3.65 3.65 0 0 1 1 0c.85 3.19.55 3.65-2.22 4.39-5.97 1.62-11.79 3.21-17.62 4.94-.73.22-1.36 1.13-1.82 1.86-1.46 2.31-2.84 4.67-4.21 7-.36.62-.95 1.48-.75 1.95.27.63 1.14 1.06 1.83 1.44a62.32 62.32 0 0 1 6.53 3.55 4.07 4.07 0 0 0 4 .75c4.67-1.38 9.35-2.65 14.21-4.04z"/>
      <path d="M.07 538.17c.37-1.21.73-2.42 1.13-3.62.1-.31.54-.68.47-.86-1.39-3.25 1.69-3.26 3.17-4.24 4.38-2.88 7.95-6.17 8.14-11.93.17-5.25-3.7-10.53-9.67-10.39-1.3 0-3 .3-3-1.9 0-1.35.35-2.08 1.87-2.19 6-.43 12.13 4.31 14.09 10 2.6 7.62-2.5 15.18-8.29 18.83-1.43.9-2.35 1.66-1.68 3.5a1.79 1.79 0 0 1-.71 1.63c-1.54.7-3.17 1.16-4.77 1.72zM778.7 497.25c.23 1 .43 2 .71 3 .53 1.82 1.42 3.12 3.67 2.83 1.24-.16 2.45 0 2.52 1.78s-.89 2.17-2.41 2.28c-5.25.39-5.51.22-7.07-4.79-.83-2.65-1.76-5.27-2.64-7.9s-.35-3.18 2.32-2.83a11.69 11.69 0 0 1 3.26.86c3.36 1.51 3.34 1.56 6.2 1 .35 1.6 1 3.26-1 4.21-1.85.8-3.84 2.49-5.56-.44zM773.4 507.63c-3.75-.19-6.92-.84-8.35-4.36a8 8 0 0 1 4.22-9.82 2.12 2.12 0 0 1 1.95.66c1.45 3.89 2.83 7.83 4 11.8.65 2.09-1.13 1.6-1.82 1.72zM772.81 723.1a6.33 6.33 0 0 1 6.17-6.45 6.4 6.4 0 1 1-.14 12.79 6.39 6.39 0 0 1-6.03-6.34zm6.27 3.29c1-1.54 2.12-2.45 2-3.26s-1.43-2.33-2-2.23c-1 .21-2.44 1.25-2.58 2.12s1.35 1.81 2.58 3.37zM16.27 90.32a6.22 6.22 0 0 1-6.07 6.44A6.4 6.4 0 0 1 10.09 84a6.26 6.26 0 0 1 6.18 6.32zm-6.14 3.44c1.23-1.6 2.46-2.52 2.46-3.42s-1.31-2-2.24-2.23A1.91 1.91 0 0 0 8 90.38c.07.92 1 1.75 2.13 3.38zM12.51 766.41A5.5 5.5 0 0 1 7.2 772a5.69 5.69 0 0 1-5.74-5.52 5.79 5.79 0 0 1 5.47-5.84 5.9 5.9 0 0 1 5.58 5.77zm-3.26-.11c-1.08-.71-1.84-1.56-2.33-1.43-.68.18-1.15 1.1-1.71 1.71.6.47 1.19 1.3 1.8 1.32s1.21-.81 2.25-1.59zM784.65 777.1c-.66-1.17-1.39-2.31-2-3.52-1-2.12-1.88-4.3-2.82-6.45-2-4.46.25-8.78 5.67-10.08-.14 1.35.19 3.08-.47 3.63-2.79 2.36-1.88 4.89-.59 7.31 1.55 2.91 1.06 5.85 1 8.82z"/>
      <path d="M.62 512.24a7 7 0 0 1 7 6.56c.32 3.68-3 7.89-7.1 8.65v-8l1.65 2.75c1.94-2.08 2-4.51-.13-5.66-1.93-1.08-2.04-2.39-1.42-4.3zM784.64 527.25c-1.56-4.57-3.14-9.14-4.63-13.74-.11-.34.32-1.23.56-1.25a13.49 13.49 0 0 1 4.33 0c.39.09.54 1.81.57 2.79.1 3.11.1 6.22.11 9.33 0 .91-.08 1.83-.12 2.74zM1.52 491.58L0 486.38c4 .73 5.93 3.28 7.55 6 .19.33-.34 1.49-.81 1.74-1.9 1-3.91 1.78-5.88 2.65l-.86-.41zM414.3 19.94a6.48 6.48 0 0 1-6.47-6.2 6.38 6.38 0 0 1 12.73-.19c.14 3.21-2.94 6.34-6.26 6.39zm3.27-6.16c-1.6-1.22-2.51-2.45-3.41-2.44s-2.23 1.49-2.15 2.19a3.54 3.54 0 0 0 2.24 2.38c.66.18 1.7-1.03 3.32-2.13zM154.82 18.05c-1.31.81-2.37 1.7-2.56 1.54a46.85 46.85 0 0 1-3.63-3.67c.59-.52 1.54-1.59 1.7-1.49 1.43.96 2.67 2.13 4.49 3.62zM142.41 19.78a26 26 0 0 1 2.13 4.22c.14.44-1 1.28-1.55 1.93a35.6 35.6 0 0 1-2.69-4.12c-.18-.36.69-1.25 1.08-1.89zM118.66 23.86c1.4-1.5 2.4-2.62 3.51-3.62.05 0 1.63 1.24 1.53 1.45a43.17 43.17 0 0 1-2.54 4.22zM156.36 5.27L160.11 9c-.62.47-1.5 1.46-1.81 1.31a33.28 33.28 0 0 1-4-2.61zM107.66 5.27l2 2.4a27.45 27.45 0 0 1-3.82 2.58c-.32.15-1.24-1-1.89-1.5zM116 16.25c-1.72 1.37-3 2.42-4.33 3.33a6.64 6.64 0 0 1-1.37-1.6 27 27 0 0 1 3.46-3.53 16.68 16.68 0 0 1 2.24 1.8zM129.8 24.78c.88-1.12 1.5-2.63 2.18-2.66 1.9-.07 2 1.72 1.75 3-.23 1.06-1.2 1.95-1.84 2.92zM104.85 785.41l-3.17-2.49c1-.64 1.94-1.8 2.9-1.78 1.11 0 2.2 1.08 3.29 1.68zM159.46 785.47l-3.29-2.47c1.06-.66 2.07-1.74 3.18-1.86.86-.09 1.86 1 2.79 1.58zM152.24 760.2c.81 1.19 1.75 2.28 1.63 2.42a51.3 51.3 0 0 1-3.76 3.57c-.49-.61-1.5-1.58-1.37-1.77a50 50 0 0 1 3.5-4.22zM141.26 760.87c-.35-.77-1.18-1.77-.95-2.28a25.36 25.36 0 0 1 2.66-3.88c.54.67 1.66 1.53 1.52 2a27.78 27.78 0 0 1-2.22 4.33zM107.3 775.25l-3.3-3.61c.71-.47 1.74-1.51 2.09-1.32a24.7 24.7 0 0 1 3.6 2.81zM118.83 756.93l2.16-2.19a30.1 30.1 0 0 1 2.68 4.06c.15.32-1 1.27-1.57 1.93zM156.16 775.12l-1.88-2.12a35.68 35.68 0 0 1 4.1-2.68c.22-.11 1.14 1.16 1.73 1.79zM112 760a51.72 51.72 0 0 1 3.1 4.58c.11.2-1 1-1.47 1.56a41.67 41.67 0 0 1-3.3-3.62c-.2-.15.72-1.14 1.67-2.52zM129.67 755.47l2.42-2.94c.58 1 1.61 2 1.61 3s-1.06 1.95-1.65 2.92zM737.84 734.76a6.27 6.27 0 0 1 6.25 6.3c-.08 3.21-3.36 6.36-6.47 6.24a6.57 6.57 0 0 1-6-6.34 6.08 6.08 0 0 1 6.22-6.2zm.08 9.43c1-1.52 2.13-2.47 2-3.27s-1.32-1.64-2.06-2.46c-.85.91-2 1.7-2.4 2.77-.14.52 1.26 1.56 2.46 2.96zM758.29 738.12c-3.61 0-6-2.45-6-6.15a6.28 6.28 0 0 1 6-6.36 6.51 6.51 0 0 1 6.34 6.34 6.16 6.16 0 0 1-6.34 6.17zm3.37-6.18c-1.47-1-2.47-2.24-3.22-2.1-1 .19-1.73 1.45-2.59 2.25.89.78 1.71 2 2.71 2.2.73.12 1.68-1.21 3.1-2.35zM255.9 702.58a6.37 6.37 0 0 1 5.94-6.41 6.5 6.5 0 0 1 6.51 6.18 6.36 6.36 0 0 1-6.29 6.34 6 6 0 0 1-6.16-6.11zm8.89.64v-1.11c-.85-.61-1.78-1.8-2.53-1.69-1 .14-1.79 1.31-2.68 2 .74.82 1.42 2.2 2.25 2.3s1.97-.93 2.96-1.49zM311.42 714.76a5.87 5.87 0 0 1-6.05 6.06 6.15 6.15 0 0 1-6.25-6.23 6.15 6.15 0 1 1 12.3.17zm-2.57 0c-1.52-1.1-2.33-2.09-3.32-2.31a1.89 1.89 0 0 0-2.45 2.18c.16.93 1.37 2.32 2.13 2.33.98.04 1.99-1.13 3.63-2.2zM283.64 714.64a6.23 6.23 0 0 1-6.3-6.23 6.65 6.65 0 0 1 6.36-6.05 6.54 6.54 0 0 1 6.44 6.24 6.28 6.28 0 0 1-6.5 6.04zm3.49-6c-1.53-1.15-2.32-2.18-3.25-2.35-1.43-.26-2.71.64-2.33 2.24.22 1 1.32 2.33 2.08 2.37.9.1 1.87-1.11 3.49-2.23zM288.19 751a5.54 5.54 0 1 1-.14 11.07 5.54 5.54 0 0 1 .14-11.07zm.07 3.26c-.87 1-1.91 1.64-1.82 2.09.15.73 1 1.3 1.62 1.94.55-.55 1.46-1.06 1.55-1.68s-.69-1.3-1.35-2.37zM381.31 301.55a6.13 6.13 0 0 1-6.11-6.13 6.47 6.47 0 0 1 6.18-6.45 6.64 6.64 0 0 1 6.29 6.39 6.22 6.22 0 0 1-6.36 6.19zm.24-9.43c-1.22 1.4-2.59 2.34-2.47 3a3.61 3.61 0 0 0 2.27 2.37c.61.14 2.07-1.23 2.22-2.08s-1.02-1.77-2.02-3.3zM336.9 294.62a6.6 6.6 0 0 1-6.22-6.51 6.4 6.4 0 0 1 6.37-6 6.09 6.09 0 0 1 6.13 6.15 6.44 6.44 0 0 1-6.28 6.36zm3.53-6.38c-1.59-1.11-2.62-2.35-3.33-2.19-.93.21-1.62 1.53-2.41 2.38.81.69 1.6 1.89 2.45 1.94s1.75-1.07 3.3-2.14zM359.34 285.67a6.25 6.25 0 0 1 6.26 6.33 6.81 6.81 0 0 1-6.36 6.15c-3.13 0-6.49-3.31-6.46-6.37a6.42 6.42 0 0 1 6.56-6.11zm3.22 6.42c-1.53-1.33-2.46-2.75-3.27-2.68s-2 1.45-2.26 2.45c-.13.55 1.26 2 2.11 2.11s1.78-.91 3.42-1.88zM363.56 338.8a5.48 5.48 0 0 1 5.73-5.44 5.61 5.61 0 0 1 5.35 5.86 5.75 5.75 0 0 1-5.59 5.44 6 6 0 0 1-5.49-5.86zm7.94.12c-1.05-.76-1.71-1.6-2.28-1.54s-1.17 1-1.76 1.48c.59.59 1.11 1.5 1.8 1.66.48.1 1.2-.82 2.24-1.6zM33.16 334c-.61-5.71-1.24-11.41-1.84-17.12-.65-6.29-1.32-12.6-1.92-18.88-.84-8.74-1.62-17.49-2.44-26.23a8.48 8.48 0 0 1 4.83-8.55c2-.83 2.35-1.9 2.15-3.77-.73-6.83-1.39-13.67-2-20.5-.19-2-.33-4-.49-6a2.2 2.2 0 0 1 2.16-2.69c8.4-.8 16.8-1.55 25.19-2.37 5.71-.56 11.41-1.25 17.13-1.79 7.87-.75 15.76-1.37 23.63-2.12 2.12-.2 2.76.79 2.93 2.68q1.57 17.4 3.23 34.79c.62 6.58 1.24 13.16 2 19.72a3.63 3.63 0 0 0 1.84 2.16 7.56 7.56 0 0 1 4.19 6.47c.33 4.33.56 8.68 1.09 13a6.8 6.8 0 0 1-2.75 6.63c-1.33 1-1.44 2.07-1.27 3.6.7 6.31 1.2 12.63 1.84 18.95.19 1.94-.72 2.7-2.5 2.87-4.41.43-8.81.9-13.22 1.33-6.14.6-12.29 1.15-18.44 1.77-10.55 1.06-21.1 2.19-31.66 3.19a27 27 0 0 1-7.23 0c-3.78-.71-5.82-3.33-6.45-7.14zm75.49-3c-.52-6.46-1-12.43-1.55-18.39a2.34 2.34 0 0 0-1.63-1.46 14.2 14.2 0 0 0-3.63.13c-4.5.46-9 1.09-13.49 1.41-4.8.34-7.74-2.26-8.28-7q-.46-4-.84-8a7.33 7.33 0 0 1 6.56-8c5.28-.51 10.57-.86 15.85-1.37 1.18-.11 2.87.1 2.67-2-.52-5.54-1.08-11.08-1.59-16.62-.14-1.55-.78-2-2.4-1.83-4.31.57-8.64 1-13 1.41-5.62.55-11.24 1-16.87 1.56l-17.92 1.71c-3.72.36-7.45.69-11.17 1.1-1.12.12-2.22.26-2 2 .64 6.14 1.09 12.29 1.7 18.43.81 8.13 1.74 16.25 2.54 24.38.5 5 .83 10.05 1.32 15.07.18 1.9.26 3.88 3.23 3.54 5.18-.61 10.39-.92 15.58-1.45 7.87-.79 15.74-1.67 23.61-2.48 7.02-.71 14.02-1.37 21.31-2.08zM88.09 228.34c-.69.91-1.35 1.85-2.09 2.73-1.19 1.42-2.48 2.75-3.62 4.21-.61.78-1.45 1.77-1.39 2.61.62 8.23 1.44 16.45 2.15 24.67.19 2.24 1.09 3.18 3.52 2.89 4.57-.56 9.16-.86 13.75-1.2 1.48-.11 1.93-.77 1.77-2.21q-1.37-12.57-2.64-25.16c-.17-1.71-.67-2.74-2.55-3.34a6.49 6.49 0 0 1-3.7-3c-1.08-2.54-2.67-2.36-5.2-2.2zm-33.47 11.11c-.44-.32-1.15-.79-1.81-1.3-1.59-1.24-3.5-2.25-4.64-3.82s-2.28-1.36-3.62-1.17-2.68-.16-3.27 1.84a7.3 7.3 0 0 1-2.87 4.11c-2.6 1.44-2.54 3.4-2.15 5.72.19 1.12.36 2.24.47 3.36.65 6.57 1.33 13.15 1.9 19.73.15 1.71.94 2.32 2.53 2.15 4.84-.53 9.69-1 14.51-1.67a2.22 2.22 0 0 0 1.41-1.63c0-2.34-.31-4.68-.53-7-.61-6.6-1.25-13.18-1.93-20.32zm6.86 28.46c5.45-.56 10.7-1.17 16-1.62 2.2-.19 2.49-1.38 2.27-3.19-.58-4.92-1.1-9.85-1.63-14.77-.34-3.19-.54-6.41-1-9.58a3.61 3.61 0 0 0-1.59-2.55 9.16 9.16 0 0 1-5.25-4.4c-1.11-2.11-3-.62-4.47-.69-.62 0-1.39.91-1.92 1.55q-2 2.42-3.88 5c-.54.74-1.31 1.66-1.25 2.44.58 7.88 1.3 15.76 2 23.63.09 1.27.44 2.65.72 4.19zm48 19.73l-.94-.17c.21 2.36-.33 4.1-3 4.26-2.43.15-4.85.4-7.27.64-3.89.38-7.79.75-11.67 1.2-1.73.2-3.44.8-3.33 2.95.16 3.29.48 6.59.92 9.86.24 1.81 1.55 2.67 3.39 2.5 5.45-.49 10.9-1 16.36-1.5 6.52-.55 8 0 6.74-8.71-.54-3.67-.8-7.34-1.18-11.02zm-67.86 49.78l-7-70.85c-2.49.44-3.67 1.64-3.68 3.59 0 2.42.27 4.84.49 7.26.78 8.74 1.55 17.48 2.38 26.21.92 9.69 1.91 19.38 2.83 29.07.29 2.77 1.5 4.14 4.98 4.72z"/>
      <path d="M93.44 261.56a6.13 6.13 0 0 1-7.44-4.38 6.47 6.47 0 0 1 4.35-7.81A6.64 6.64 0 0 1 98 254a6.22 6.22 0 0 1-4.56 7.56zm-2.15-9.19c-.83 1.66-1.92 2.92-1.63 3.5a3.61 3.61 0 0 0 2.8 1.72c.62 0 1.7-1.71 1.62-2.57s-1.43-1.43-2.79-2.65zM48.73 266.08a6.6 6.6 0 0 1-7.67-4.72 6.4 6.4 0 0 1 4.65-7.42 6.09 6.09 0 0 1 7.49 4.4 6.44 6.44 0 0 1-4.47 7.74zm1.8-7.07c-1.81-.67-3.13-1.61-3.78-1.28-.85.44-1.18 1.89-1.73 2.91 1 .47 2 1.43 2.86 1.26s1.42-1.47 2.65-2.9zM68.17 251.75a6.25 6.25 0 0 1 7.66 4.54 6.81 6.81 0 0 1-4.59 7.56c-3 .8-7.12-1.56-7.86-4.54a6.42 6.42 0 0 1 4.79-7.56zm4.74 5.4c-1.81-.9-3.08-2-3.84-1.77s-1.58 1.91-1.57 2.94c0 .57 1.72 1.59 2.58 1.51s1.49-1.33 2.83-2.68zM85.68 302.1a5.48 5.48 0 0 1 4.17-6.71 5.61 5.61 0 0 1 6.66 4.32 5.75 5.75 0 0 1-4 6.68 6 6 0 0 1-6.83-4.29zm7.71-1.89c-1.21-.47-2.06-1.11-2.6-.92s-.9 1.22-1.33 1.88c.72.42 1.45 1.17 2.16 1.15.5-.02.96-1.1 1.77-2.12zM623.71 514.85a6.13 6.13 0 0 1 6.22 6.27 6.42 6.42 0 0 1-6.32 6 6.15 6.15 0 0 1-6.21-6.28c.02-3.74 2.43-6.02 6.31-5.99zm3 6c-1.45-1.12-2.51-2.48-3.13-2.3a3.67 3.67 0 0 0-2.17 2.52c-.09.6 1.4 2 2.25 2s1.69-1.15 3.08-2.24zM664.63 545.21a6.36 6.36 0 0 1-6.31-6.3 6.51 6.51 0 0 1 6.55-6.1 6.22 6.22 0 0 1 6 6.49 6 6 0 0 1-6.24 5.91zm3.31-6.13c-1.43-1.06-2.35-2.26-3.16-2.19s-2.26 1.48-2.16 2.11a3.51 3.51 0 0 0 2.21 2.42c.68.14 1.68-1.21 3.11-2.35zM650.47 530a6.6 6.6 0 0 1-6.32 6.35 6.69 6.69 0 0 1-6.29-6.4c0-3.31 3.21-6.51 6.33-6.4a6.75 6.75 0 0 1 6.28 6.45zm-5.66-2.67h-1.09c-.57.89-1.45 1.71-1.63 2.67-.26 1.38.62 2.55 2.1 2.2a3.06 3.06 0 0 0 2-2.06c.05-.89-.88-1.85-1.38-2.78zM636.2 578a5.33 5.33 0 0 1 5.47-5.43 5.52 5.52 0 0 1 5.54 6.58 5.66 5.66 0 0 1-5.91 4.48 5.37 5.37 0 0 1-5.1-5.63zm5.47-2.28c-.8 1.06-1.71 1.74-1.64 2.3s1 1.14 1.62 1.71c.54-.56 1.45-1.08 1.5-1.68s-.76-1.24-1.48-2.31zM612.22 169.54c1.88.72 2.69-.62 3.36-2.14 3.33-7.53 6.7-15.05 10-22.62 1.61-3.73 2.37-4 6.11-2.31 11.18 5 22.4 9.93 33.61 14.88 8.26 3.66 16.51 7.35 24.79 11 2.3 1 1.87 2.71 1.16 4.37-1.67 3.92-3.46 7.78-5.19 11.67l-16.32 36.7c-.74 1.66-1 3.13.34 4.8 1.62 2 1.28 4.52.07 6.83a88.9 88.9 0 0 0-5 11.13c-1.14 3.16-3.28 4.69-6.27 5.52a3.79 3.79 0 0 0-2.23 1.72c-2.61 5.59-5.1 11.24-7.56 16.9-1.15 2.65-2.17 3.2-4.86 2q-18.37-8.11-36.71-16.29c-7.71-3.42-15.37-7-23.17-10.14-4.86-2-8.74-6.8-5.48-13.66 5.4-11.39 10.27-23 15.37-34.56q4.64-10.48 9.33-20.94c1.51-3.34 4.66-5.11 8.65-4.86zm41.45 78.55c-.83-.47-1.53-1-2.29-1.29-4.92-2.2-9.87-4.33-14.78-6.56-4-1.81-5.41-5.48-3.72-9.54 1.14-2.73 2.3-5.45 3.58-8.12 1.87-3.89 5.69-5.23 9.67-3.49 4.78 2.09 9.64 4 14.29 6.39 2.42 1.22 3.27.23 4.1-1.68 1.93-4.47 3.79-9 5.87-13.38.85-1.81.48-2.53-1.3-3.31-11.32-4.94-22.58-10-33.87-15-7.23-3.19-14.47-6.33-21.86-9.56-.4.69-.78 1.25-1.06 1.86q-4.44 9.87-8.84 19.76c-4.89 11.05-9.73 22.13-14.64 33.18-1.51 3.4-1.55 3.29 2 4.81 7.74 3.35 15.46 6.77 23.17 10.2q14.66 6.51 29.3 13.06c1.47.65 2.48.67 3.24-1.15 2.24-5.35 4.68-10.64 7.14-16.17zm-39.16-69.24c5.36 2.36 10.39 4.51 15.35 6.8 1.58.73 2.15.09 2.73-1.23 3.44-7.87 7-15.71 10.32-23.62.35-.82-.28-2.13-.62-3.15-.61-1.82-1.78-3.57-1.93-5.41s-1.28-2.31-2.54-2.79-2.28-1.48-3.93 0c-1.48 1.3-3.79 1.64-5.7 2.49-.85.38-2 .8-2.33 1.51-3.79 8.29-7.47 16.68-11.34 25.41zM655.83 197a25.58 25.58 0 0 0 2.8 1.32 74.7 74.7 0 0 1 11.56 5.11c2.19 1.23 3.06.63 3.79-1 3.37-7.72 6.71-15.45 10.13-23.14.62-1.38.35-2.17-.54-3.4-1-1.44-1.36-3.41-2-5.13-.32-.83-.58-2.21-1.11-2.33-1.64-.38-2.91-2.75-5.14-.76a8.88 8.88 0 0 1-5 2.17 3.73 3.73 0 0 0-3.68 2.62c-.37.88-.68 1.79-1.07 2.66-3.22 7.17-6.41 14.39-9.74 21.88zm.22-39.55v.79c-2.17.85-4.33 2.31-6.53 2.38s-2.71 1-3.35 2.43c-1.46 3.34-2.94 6.68-4.4 10-2.14 4.91-4.27 9.82-6.48 14.89 5.24 2.36 10.22 4.59 15.18 6.85 1.51.69 2.23-.07 2.79-1.35 3.41-7.81 6.88-15.58 10.18-23.44.35-.84-.19-2.16-.55-3.18-.62-1.76-1.91-3.43-2-5.18s-.39-2.52-2-3a20.12 20.12 0 0 1-2.84-1.17zm11.2 71.59l-.73-.46c-1.11 2.91-2.84 2.54-5.08 1.5-5.59-2.59-11.28-5-16.94-7.4-1.94-.84-3.68-.51-4.66 1.46-1.23 2.49-2.33 5-3.31 7.64s-.26 4.18 2.2 5.29q8.63 3.88 17.31 7.66a4.25 4.25 0 0 0 5.56-2.16c1-2.21 2-4.42 3-6.66s1.76-4.55 2.65-6.85zm-54.3-55.69c-2.51-.57-4.31-.13-5.52 1.63a24 24 0 0 0-2.14 4.16c-3.5 8.14-6.89 16.33-10.43 24.44-4.21 9.64-8.55 19.23-12.8 28.85-1.2 2.72-.55 4.8 2 6.18z"/>
      <path d="M627.07 168.07a6.13 6.13 0 0 1 6.22 6.27 6.42 6.42 0 0 1-6.32 6 6.15 6.15 0 0 1-6.21-6.28c.03-3.73 2.43-6.06 6.31-5.99zm3 6c-1.45-1.12-2.51-2.48-3.13-2.3a3.67 3.67 0 0 0-2.17 2.52c-.09.6 1.4 2 2.25 2s1.7-1.15 3.09-2.23zM668 198.43a6.36 6.36 0 0 1-6.31-6.3 6.51 6.51 0 0 1 6.55-6.1 6.22 6.22 0 0 1 6 6.49 6 6 0 0 1-6.24 5.91zm3.31-6.13c-1.43-1.06-2.35-2.26-3.16-2.19s-2.26 1.48-2.16 2.11a3.51 3.51 0 0 0 2.21 2.42c.67.15 1.67-1.2 3.11-2.34zM653.84 183.26a6.6 6.6 0 0 1-6.32 6.35 6.69 6.69 0 0 1-6.29-6.4c0-3.31 3.21-6.51 6.33-6.4a6.75 6.75 0 0 1 6.28 6.45zm-5.66-2.67h-1.09c-.57.89-1.45 1.71-1.63 2.67-.26 1.38.62 2.55 2.1 2.2a3.06 3.06 0 0 0 2-2.06c.04-.93-.89-1.89-1.39-2.81zM639.56 231.24a5.33 5.33 0 0 1 5.47-5.43 5.52 5.52 0 0 1 5.54 6.58 5.66 5.66 0 0 1-5.91 4.48 5.37 5.37 0 0 1-5.1-5.63zM645 229c-.8 1.06-1.71 1.74-1.64 2.3s1 1.14 1.62 1.71c.54-.56 1.45-1.08 1.5-1.68S645.75 230 645 229zM435.24 582.1c10 1.2 18.64 2.3 27.28 3.27 7.87.88 15.76 1.62 23.64 2.45 3.72.39 7.45.76 11.13 1.36.87.14 2.2 1.14 2.27 1.84a7.57 7.57 0 0 0 5.37 6.75c1.83.67 2.24 1.69 2 3.33a26.52 26.52 0 0 1-1 4.85 3.08 3.08 0 0 1-2.11 1.45 8 8 0 0 0-6.39 4.79 2.79 2.79 0 0 1-3.25 1.89c-6.15-.68-12.3-1.27-18.44-1.94q-15.58-1.7-31.15-3.47c-4.24-.48-8.47-1-12.71-1.46a2.36 2.36 0 0 1-2.45-2.43 7.27 7.27 0 0 0-5.47-6.33c-1.6-.5-1.81-1.32-1.56-2.7a11.89 11.89 0 0 0 .22-2.86c-.18-2.7.62-4 3.7-4.32a6.74 6.74 0 0 0 4.61-3.3c1.35-2.72 2.87-3.69 4.31-3.17zm57 27.88a12.42 12.42 0 0 0 2.57-1.14c2.18-1.49 4.16-3.27 6.39-4.67 1.91-1.2 2-2.12.36-3.75-1.86-1.87-3.36-4.1-5.11-6.08a4.21 4.21 0 0 0-2.23-1.43c-5.85-.86-11.71-1.67-17.59-2.32q-20-2.21-40-4.2c-.67-.07-1.48.56-2.12 1q-3.2 2.31-6.32 4.75c-.64.51-1.51 1.14-1.6 1.81s.77 1.31 1.28 1.91c1.6 1.91 3.15 3.85 4.87 5.64a5.88 5.88 0 0 0 3 1.94c8.29 1.07 16.6 2 24.9 2.91zM193.33 361.95a18.66 18.66 0 0 0-1.95.75c-3 1.57-4.85 4-4.66 7.49.1 2-1.32 2.3-2.6 2.67-6.6 1.9-13.22 3.71-19.83 5.57-8.36 2.35-16.71 4.75-25.08 7.08-5.19 1.45-10.4 2.85-15.63 4.14a2.59 2.59 0 0 1-2.25-.8c-1.85-2.92-4.31-4.49-7.81-4.15-1.65.16-2.38-.63-2.73-2.12a41.8 41.8 0 0 0-1.21-4.26 2.1 2.1 0 0 1 1.18-3 7.85 7.85 0 0 0 4.58-7.56 2.75 2.75 0 0 1 1.56-2c9-2.67 18-5.2 27.06-7.77q12.41-3.52 24.83-7c3.1-.87 6.19-1.77 9.34-2.38a3.24 3.24 0 0 1 2.7 1.15 7.57 7.57 0 0 0 7.25 3.78 2.48 2.48 0 0 1 3 2.07c.53 1.84 1 3.71 1.42 5.56zm-15.9-9.2c-5.19 1.38-10.08 2.64-14.93 4q-19.47 5.41-38.92 10.89c-2.37.66-4.35 1.44-5.13 4.35-.53 1.95-2.17 3.67-3.56 5.29s-1.3 2.56.81 3.35c1.85.7 4.15 1.09 5.37 2.43 2.63 2.87 5.29 2 8.26 1.17 8.6-2.5 17.22-4.89 25.84-7.32s17.22-4.91 25.83-7.35a3.68 3.68 0 0 0 1.84-1.52c1.5-2.37 2.76-4.9 4.32-7.23 1.08-1.61.79-2.6-.92-3.36-2.41-1.07-4.69-2.44-7-3.7-.7-.36-1.34-.75-1.81-1zM481.37 298.51c.4-3.3-.31-5.88-2.66-7.86-.2-.17-.53-.27-.6-.48-1-2.8 1.56-4.33 2.4-6.47.44-1.12 1-1.78 2.55-1.37a8.73 8.73 0 0 0 8.91-2.23c.59-.58 2.49-.48 3.41 0 9.66 5.16 19.25 10.47 28.86 15.73 8.31 4.55 16.62 9.11 25 13.6 1.84 1 2.74 2.06 2.18 4.33a6.8 6.8 0 0 0 2.67 7.18c1.24 1 1.5 1.95.56 3.29a25.82 25.82 0 0 0-1.65 3c-1 1.84-2 2.89-4.47 2.2a7.51 7.51 0 0 0-7.62 2.35 2.75 2.75 0 0 1-2.54.44c-12.55-6.77-25-13.64-37.56-20.49-5.72-3.13-11.43-6.28-17.18-9.36-1.79-.97-3.33-1.86-2.26-3.86zm4.41-11.26l-.29-.77c-.92.34-2.29.45-2.63 1.1s.39 1.81.69 2.74c.67 2 1.7 4 2 6.11a4.32 4.32 0 0 0 2.41 3.87c16.57 9 33.09 18.09 49.67 27.09a3.89 3.89 0 0 0 2.52-.08c2.56-.68 5.06-1.71 7.65-2.16s2.89-1.11 1.81-3.4-1.49-4.55-2.35-6.78c-.42-1.09-.93-2.47-1.82-3-4-2.41-8.21-4.55-12.32-6.8-12.5-6.85-25-13.74-37.51-20.5a4.9 4.9 0 0 0-3.32.13c-2.24.67-4.35 1.61-6.51 2.44zM329.32 571.5a22.79 22.79 0 1 1-22.81 22.75 23 23 0 0 1 22.81-22.75zm18.68 23c.62-9.85-7.58-19.07-18.85-19.09a18.77 18.77 0 0 0-18.76 18.81c.1 10.68 8.11 18.49 18.62 18.87s19.51-8.71 18.99-18.61zM302.16 591.6l2.78 2.72c-1 .58-2 1.64-3 1.62s-2-1.11-3-1.73zM349.48 571.43c.82 1.24 1.66 2.19 1.52 2.36-1.09 1.34-2.36 2.54-3.57 3.78-.53-.57-1.61-1.5-1.51-1.65.95-1.42 2.08-2.72 3.56-4.49zM331.93 567.26l-2.85 2.67c-.55-1-1.55-2.07-1.52-3.08s1.08-2 1.68-3zM356.4 597l-2.84-2.72c.87-.59 1.67-1.51 2.61-1.69 1.27-.25 3.15-.34 3.07 1.61-.03.8-1.54 1.54-2.84 2.8zM321.64 618.75l-3.56 3.4c-.51-.6-1.56-1.48-1.42-1.74a36.23 36.23 0 0 1 2.7-4z"/>
      <path d="M326.61 621.28l2.52-2.71c.65 1 1.81 1.94 1.8 2.9s-1.17 1.93-1.83 2.9zM353.54 586.71l-2.07-2.46a34.27 34.27 0 0 1 4.08-2.58c.3-.14 1.16.9 1.77 1.4zM353.74 601.8l3.42 3.55c-.6.48-1.49 1.49-1.76 1.35a36.76 36.76 0 0 1-4-2.75zM340.61 565.85c.42.67 1.35 1.59 1.17 2a31.2 31.2 0 0 1-2.72 4c-.47-.67-1.46-1.48-1.32-2a24.19 24.19 0 0 1 2-4.08zM321.53 569.92c-1 .88-1.51 1.63-2.15 1.78-1.13.26-3-2.22-2.71-3.79.13-.7 1.09-1.25 1.67-1.86zM304.93 601.82c.89 1.08 1.79 1.68 1.77 2.23-.11 2.34-2.38 2.14-3.85 2.72-.35.14-1.18-.92-1.79-1.42zM304.95 586.67l-3.91-3.4c.65-.55 1.58-1.7 1.9-1.55a25.87 25.87 0 0 1 3.81 2.52zM336.81 618.36l2.23-1.94a38.78 38.78 0 0 1 2.64 4.1c.12.24-1 1.09-1.49 1.65zM308.88 571.48c1.49 1.77 2.64 3.06 3.61 4.46.09.12-1.45 1.6-1.5 1.56a25.19 25.19 0 0 1-3.58-3.45c-.17-.21.7-1.26 1.47-2.57zM351.65 614.33a15 15 0 0 1-2.05 1.67c-1.31-1.11-2.51-2.35-3.74-3.56.56-.52 1.49-1.58 1.63-1.48 1.35.9 2.51 2.04 4.16 3.37zM686.73 681.77c.68 11.72-9.82 22.88-22.58 22.8a22.94 22.94 0 0 1-22.73-22.81c-.17-11.77 10.34-22.56 22.6-22.64 12.85-.12 23.52 11.43 22.71 22.65zm-22.53-19a19.16 19.16 0 0 0-19 19 18.83 18.83 0 0 0 18.78 19c11.34 0 19.2-8.66 19.1-19-.08-10.84-7.7-18.33-18.89-19.01zM666.64 709.18l-2.64 2.9c-.62-1-1.71-2-1.72-3.06s1.07-2.07 1.67-3.11zM666.61 654.62l-2.66 2.93c-.62-1-1.72-2.07-1.71-3.1s1.19-1.92 1.85-2.88zM637.94 668.27l3.91 3.72c-.69.5-1.66 1.57-2 1.4a16.58 16.58 0 0 1-3.65-2.72c-.07-.06.88-1.23 1.74-2.4zM688.32 674.16c-.84-1-1.59-1.48-1.79-2.15-.31-1 2.27-3.11 3.75-2.83.71.13 1.27 1.1 1.89 1.68zM653.83 660.5a39 39 0 0 1-2.25-5.13c-.12-.42 1-1.16 1.48-1.76a38.74 38.74 0 0 1 2.71 4.3c.14.31-.87 1.19-1.94 2.59zM690.27 695.06l-3.8-3.36c.61-.57 1.48-1.74 1.77-1.61a29.36 29.36 0 0 1 3.94 2.47zM674.56 703.72a23.92 23.92 0 0 1 1.93 4.1c.13.48-.92 1.28-1.43 1.94a24.47 24.47 0 0 1-2.56-3.76c-.22-.47.62-1.44 1-2.18z"/>
      <path d="M686.8 661.6c-1.83 1.42-3.16 2.49-4.57 3.42a6.72 6.72 0 0 1-1.36-1.61 24.3 24.3 0 0 1 3.5-3.46c.17-.14 1.18.78 2.43 1.65zM671.69 657.21l3.45-3.6c.49.69 1.49 1.49 1.37 2-.36 1.56-.5 3.66-2.76 3.71-.55.06-1.13-1.08-2.06-2.11zM686.91 702c-1.45.8-2.48 1.62-2.71 1.44a39.89 39.89 0 0 1-3.52-3.45c.6-.46 1.51-1.45 1.76-1.31a46.23 46.23 0 0 1 4.47 3.32zM643.89 658.89a49.92 49.92 0 0 1 3.34 4.51c.13.21-.91 1.11-1.41 1.7a39.26 39.26 0 0 1-3.36-3.57c-.18-.25.65-1.25 1.43-2.64zM650.84 707.67l3.4-3.63c.53.59 1.62 1.45 1.49 1.71a34.83 34.83 0 0 1-2.61 4zM638 695l-1.86-2.4a25.48 25.48 0 0 1 3.78-2.55c.33-.16 1.27 1 1.93 1.52zM691.24 684l-3-2.42c1-.57 2.06-1.58 3.08-1.58s2 1.06 3 1.65zM636.81 684.12l-3-2.51c1-.56 2-1.53 3.07-1.57s1.85 1 2.77 1.53zM648.28 700.14c-1.86 1.42-3.11 2.44-4.46 3.3a6.07 6.07 0 0 1-1.35-1.51 20.58 20.58 0 0 1 3.24-3.23c.22-.18 1.2.65 2.57 1.44zM463.22 686c11.75-.88 22.79 10.79 22.68 22.73-.11 11.15-10.09 22.87-23 22.58a23 23 0 0 1-22.52-22.78c-.13-12.15 10.74-23.27 22.84-22.53zm0 41.48c11-.24 19-8.3 18.83-19-.13-11.27-7.8-18.85-19.12-18.91-10.64-.06-18.77 8.35-18.72 19.07a18.84 18.84 0 0 0 19.04 18.85zM465.56 681.08l-2.35 3.24c-.7-1-1.88-2-1.95-3.08s1.12-2 1.75-2.94zM434.89 696.88c.73-.34 1.7-1.17 2.15-.94a26.67 26.67 0 0 1 3.81 2.68c-.74.54-1.65 1.65-2.19 1.5a19.23 19.23 0 0 1-3.94-2.08zM487.29 701.07c-.85-1.19-1.8-2.39-1.74-2.44a18.2 18.2 0 0 1 3.75-2.7c.29-.14 1.23 1 1.86 1.59zM490.11 710.89c-1.19-1-2.75-1.68-2.74-2.34 0-1.93 1.86-2.13 3.28-1.85 1 .19 1.81 1.16 2.71 1.79zM465.59 735.5l-2.46 3.29c-.66-1.06-1.76-2.09-1.86-3.2-.08-.91 1-1.91 1.63-2.88zM470.53 732.83l2.4-2.06a27.75 27.75 0 0 1 2.57 3.83c.15.32-.94 1.24-1.46 1.88zM435.75 711l-3-2.62c1-.6 2-1.66 3-1.66s1.91 1.1 2.87 1.71zM474.58 680.16c.34.75 1.15 1.72.92 2.22a24.55 24.55 0 0 1-2.53 3.81c-.53-.63-1.61-1.42-1.48-1.86a28 28 0 0 1 2-4.3zM488.84 721.76l-3.36-3.54c.58-.51 1.46-1.56 1.7-1.43a37.67 37.67 0 0 1 4 2.73zM449.67 681.37c.78-.3 2-1.07 2.26-.83a16.08 16.08 0 0 1 2.81 3.86c.13.24-1.05 1.17-1.63 1.79l-2.93-3.48z"/>
      <path d="M442.9 685.7a53.57 53.57 0 0 1 3.34 4.5c.11.18-1 1.07-1.49 1.63a39.09 39.09 0 0 1-3.31-3.58c-.16-.25.69-1.25 1.46-2.55zM481.3 724.41c1.49 1.71 2.61 2.9 3.55 4.22.09.12-1.34 1.56-1.41 1.51a26.68 26.68 0 0 1-3.65-3.25c-.14-.14.7-1.17 1.51-2.48zM481.42 692.66c-.79-1.25-1.67-2.27-1.52-2.45a42.86 42.86 0 0 1 3.44-3.5c.53.55 1.59 1.45 1.5 1.6-.9 1.36-1.99 2.6-3.42 4.35zM449.84 734.55l3.33-3.79c.56.64 1.73 1.56 1.59 1.87a27.06 27.06 0 0 1-2.55 3.84zM436.94 721.66c-.87-1-1.78-1.59-1.75-2.12.12-2.33 2.29-2.26 3.82-2.68.42-.12 1.2 1.06 1.81 1.64zM447.3 726.87c-1.87 1.42-3.12 2.43-4.48 3.28a6 6 0 0 1-1.36-1.5 20.63 20.63 0 0 1 3.24-3.24c.23-.18 1.22.65 2.6 1.46zM248.09 300A22.79 22.79 0 1 1 271 277.08 22.88 22.88 0 0 1 248.09 300zm19.13-22.9c0-9.92-8.58-19-19.11-18.65s-18.68 8.1-18.78 18.68a18.94 18.94 0 1 0 37.88 0zM220.81 279.79l-3-2.72c1.12-.58 2.22-1.56 3.36-1.62.92 0 1.89 1 2.84 1.61z"/>
      <path d="M266.55 292.9a55.73 55.73 0 0 1 3.42 4.5c.1.16-1 1.09-1.55 1.66a48.34 48.34 0 0 1-3.54-3.71c-.13-.17.8-1.2 1.67-2.45zM270.81 257a49.19 49.19 0 0 1-4.25 3.45c-.19.13-1.15-.91-1.75-1.41a51.65 51.65 0 0 1 3.6-3.71c.13-.17 1.21.78 2.4 1.67zM275.32 279.71l-3-2.61a13.15 13.15 0 0 1 3.25-1.71c1.24-.27 3 0 2.67 1.78-.18.83-1.67 1.49-2.92 2.54zM229.64 261.54c-1.36-2-2.37-3.39-3.15-4.87-.11-.21.86-1 1.34-1.53a45.78 45.78 0 0 1 3.47 3.75c.15.21-.74 1.21-1.66 2.65zM250.81 250.08l-2.59 2.75c-.6-1.09-1.61-2.15-1.67-3.27-.05-.89 1-1.85 1.63-2.78zM261.56 303.36l-2.51 1.87a27.27 27.27 0 0 1-2.56-4c-.16-.35 1-1.28 1.5-1.95zM250.95 304.22l-2.88 3.24c-.55-1-1.56-1.94-1.53-2.89s1-2.09 1.54-3.13zM272.46 269.57l-2-2.46a38.82 38.82 0 0 1 4.13-2.53c.23-.11 1 1 1.6 1.54zM225.11 284.5c.26.8 1 2 .7 2.32a16.16 16.16 0 0 1-3.89 2.84c-.22.12-1.15-1.09-1.76-1.68l3.41-2.94zM235 303l3.3-3.74c.55.65 1.7 1.59 1.55 1.9a30.27 30.27 0 0 1-2.66 4zM232.18 295.56c-1.72 1.39-3 2.44-4.32 3.35a6.46 6.46 0 0 1-1.38-1.57 25.94 25.94 0 0 1 3.39-3.52 14.64 14.64 0 0 1 2.31 1.74zM272.4 284.78l3.76 3.19c-.6.59-1.53 1.79-1.76 1.67a34.15 34.15 0 0 1-4-2.71zM223.78 269.41l-3.62-3.2c.6-.58 1.52-1.75 1.75-1.63a35.32 35.32 0 0 1 4 2.75zM261.56 251l-3.63 3.7c-.51-.57-1.57-1.45-1.45-1.67a40.41 40.41 0 0 1 2.8-4zM234.79 249.9c.79-.29 2-1 2.28-.8a17 17 0 0 1 2.77 3.95c.11.21-1.09 1.11-1.68 1.68l-2.91-3.4zM472.12 149.35a22.33 22.33 0 0 1-22.76-22c-.11-13 9.72-23.13 22.33-23.33a22.91 22.91 0 0 1 23.18 22.64c.08 12.45-10.56 23.28-22.75 22.69zm18.73-22.68a18.85 18.85 0 0 0-37.7 0c.08 11.36 8.64 19.21 19 19.11a18.52 18.52 0 0 0 18.71-19.11zM444.8 129.48l-3.14-2.8c1-.65 2-1.84 2.94-1.8s2.11 1.19 3.16 1.86zM499.11 129.47l-2.8-2.74c.94-.66 1.92-1.9 2.82-1.84 1.07.07 2.06 1.25 3.09 1.94zM474.76 153.92l-2.93 3.08a9.83 9.83 0 0 1-1.52-2.86c-.21-1.31-.2-3.19 1.69-3.12.82-.02 1.58 1.59 2.76 2.9zM474.73 99.63c-1.21 1.14-2 2.58-2.88 2.58-2 0-1.76-1.95-1.56-3.18.16-.94 1.15-1.74 1.78-2.6zM464.45 151.2l-3.6 3.59c-.48-.7-1.53-1.69-1.35-2.05a24.21 24.21 0 0 1 2.69-3.64zM447.68 134.17l1.86 2.42a25.08 25.08 0 0 1-3.75 2.53c-.35.16-1.28-.94-1.94-1.46zM464.48 102.27l-2.31 2.23a37.92 37.92 0 0 1-2.67-4.06c-.13-.26.9-1.11 1.39-1.69z"/>
      <path d="M451.92 149.4c-.91-1.2-1.86-2.18-1.74-2.33a24.6 24.6 0 0 1 3.4-3.57 6.72 6.72 0 0 1 1.66 1.26c-.91 1.44-1.95 2.79-3.32 4.64zM446 113.44l3.56 3.44c-.57.53-1.43 1.63-1.67 1.51a37.53 37.53 0 0 1-4-2.65zM494.47 146.73a18.17 18.17 0 0 1-2.09 1.76c-1.29-1.1-2.48-2.31-3.7-3.51.54-.52 1.43-1.57 1.58-1.47a51.62 51.62 0 0 1 4.21 3.22zM498 113.46l1.86 2.25a34.71 34.71 0 0 1-3.95 2.72c-.26.14-1.16-.94-1.77-1.45zM485.24 100.64l-3.46 3.83c-.54-.66-1.67-1.59-1.51-1.92a26.36 26.36 0 0 1 2.58-3.8zM500.1 138.13c-.65.37-1.53 1.2-1.9 1a34.27 34.27 0 0 1-4-2.67c.7-.49 1.54-1.5 2.06-1.35a22.07 22.07 0 0 1 4 2zM485.19 152.85l-2.37 2a29.52 29.52 0 0 1-2.53-3.93c-.13-.29 1-1.18 1.6-1.8zM456.19 108.35c-1.39.83-2.39 1.68-2.59 1.52a42.64 42.64 0 0 1-3.53-3.43c.57-.48 1.45-1.48 1.66-1.35a49 49 0 0 1 4.46 3.26zM490.42 110.9c-.9-1.32-1.79-2.32-1.66-2.47a28.14 28.14 0 0 1 3.49-3.37s1.4 1.18 1.31 1.32c-.8 1.38-1.79 2.62-3.14 4.52zM709.1 280.21c.27-12.83 10.38-22.87 22.73-22.8a22.7 22.7 0 0 1 22.83 22.87c-.07 12.28-10.48 22.93-22.62 22.67-12.98-.28-22.44-10.06-22.94-22.74zm4.07-.16c-.45 10.46 8.65 19.08 18.72 18.92 10.63-.17 19-8.29 19-18.8a18.81 18.81 0 0 0-18.86-19c-11.03.05-19.29 8.98-18.86 18.83z"/>
      <path d="M754.64 259.86a47.16 47.16 0 0 1-4.39 3.34c-.22.14-1.15-.89-1.76-1.38a51 51 0 0 1 3.7-3.62c.16-.14 1.19.8 2.45 1.66zM704.69 277.55l3 2.53c-1 .63-2 1.81-3 1.76s-2.12-1.2-3.17-1.88zM707.38 272.45l-3.57-3.45c.66-.5 1.43-1.52 1.94-1.41 1.58.35 3.63.54 3.74 2.77.03.52-1.09 1.11-2.11 2.09zM745.33 306.22a23.85 23.85 0 0 1-2.45 1.67 16.52 16.52 0 0 1-2.68-3.7c-.17-.34.94-1.3 1.46-2zM756.17 272.51l-2.05-2.35a32.79 32.79 0 0 1 4-2.61c.33-.16 1.21.82 1.84 1.28zM754.64 300c-1.29.86-2.26 1.76-2.47 1.61a41.87 41.87 0 0 1-3.67-3.27c.55-.54 1.41-1.64 1.59-1.54a52.47 52.47 0 0 1 4.55 3.2zM757.45 293.19l-3.32-3.59c.66-.43 1.5-1.37 1.94-1.21 1.5.53 3.83.31 3.78 2.76 0 .55-1.21 1.08-2.4 2.04zM758.79 282.65c-1.18-1.15-2.62-1.91-2.61-2.65 0-1.91 1.88-1.83 3.17-1.59 1 .18 1.77 1.1 2.65 1.69zM715.92 261.52a16.09 16.09 0 0 1-2.33 1.8 28 28 0 0 1-3.43-3.56 6.26 6.26 0 0 1 1.45-1.53c1.39.87 2.57 1.92 4.31 3.29zM745.23 253.8l-3.54 3.82c-.53-.56-1.62-1.42-1.5-1.63a40.54 40.54 0 0 1 2.72-4.07zM729.56 252.22l2.38-2.53a11.33 11.33 0 0 1 1.68 3c.27 1.36 0 3.15-1.84 2.93-.78-.06-1.32-1.92-2.22-3.4zM718.53 254l2.4-2.08a40.64 40.64 0 0 1 2.6 4.09c.11.22-1 1-1.49 1.58zM718.54 306l3.49-3.76c.53.67 1.64 1.63 1.47 2a25.24 25.24 0 0 1-2.61 3.74zM711.74 302.82c-.91-1.51-1.73-2.53-1.59-2.7a44.69 44.69 0 0 1 3.53-3.38c.45.52 1.38 1.32 1.26 1.52a55.68 55.68 0 0 1-3.2 4.56zM729.52 307c1-1.08 1.68-2.42 2.42-2.46 1.81-.09 2 1.62 1.67 2.85-.26 1.06-1.2 1.95-1.84 2.92zM705.76 293.13l-1.93-2.13a38.48 38.48 0 0 1 4.1-2.59c.23-.11 1.07 1 1.62 1.56zM637.89 54.9a22.76 22.76 0 1 1-22.83 22.71 22.62 22.62 0 0 1 22.83-22.71zm18.82 22.66a18.75 18.75 0 0 0-18.93-18.84 19 19 0 0 0-18.84 19c0 10.06 8.55 19 19 18.74 10.69-.27 18.78-8.19 18.77-18.9zM610.36 75l3.21 2.71c-.92.59-1.88 1.71-2.76 1.65-1.14-.07-2.22-1.08-3.33-1.69zM651.09 103.68c-1 .84-1.65 1.75-2.21 1.72-2.23-.13-2.46-2.17-2.84-3.75-.12-.51 1-1.3 1.53-2z"/>
      <path d="M656.21 61.73c-.89-1.18-1.86-2.21-1.74-2.36a28.93 28.93 0 0 1 3.59-3.65c.05 0 1.62 1.36 1.54 1.48-.92 1.44-2.02 2.8-3.39 4.53zM664.09 90.92L660 87.43c.58-.54 1.4-1.66 1.68-1.53a36.44 36.44 0 0 1 4.25 2.47zM662.1 70l-2.1-2.33a33.11 33.11 0 0 1 4-2.62c.33-.16 1.21.83 1.84 1.3zM628.34 99.52c.37.77 1.17 1.62 1 2.28-.31 1.51-.47 3.52-2.64 3.57-.47 0-1.5-1.39-1.36-1.88a24.19 24.19 0 0 1 2-4.1zM665.24 75l2.64 2.41c-1 .66-2 1.82-3.08 1.84s-1.8-1.19-2.8-1.88zM613.25 69.92l-3.59-3.43c.67-.51 1.64-1.59 2-1.42a29.6 29.6 0 0 1 3.9 2.77zM621.94 59.08a14.6 14.6 0 0 1-2.48 1.73 31.24 31.24 0 0 1-3.46-3.76c0-.05 1.26-1.44 1.39-1.35 1.41.91 2.74 1.99 4.55 3.38zM651.2 51.26l-3.6 3.88c-.55-.53-1.67-1.34-1.57-1.55a41.65 41.65 0 0 1 2.56-4.18zM624.36 51.43l2.48-2a29.91 29.91 0 0 1 2.53 3.91c.14.29-1 1.18-1.53 1.79zM640.33 50.45l-2.61 2.87a12.84 12.84 0 0 1-1.48-3.15c-.22-1.22-.23-3 1.64-2.81.8.11 1.41 1.72 2.45 3.09zM653.57 96c1.22-.89 2.22-1.85 2.4-1.72a44.12 44.12 0 0 1 3.71 3.33c-.54.54-1.38 1.62-1.56 1.52a53.82 53.82 0 0 1-4.55-3.13zM615.83 88a29.49 29.49 0 0 1-4.29 2c-.45.14-1.78-.87-1.77-1.31.08-2.27 2.17-2.39 3.73-2.78.61-.15 1.47.68 2.22 1.07zM619.23 93.43c.85 1.11 1.73 2 1.62 2.14a26.87 26.87 0 0 1-3.24 3.59 7.75 7.75 0 0 1-1.61-1.33c.88-1.37 1.9-2.66 3.23-4.4zM635.28 104.74l2.58-2.83c.55.92 1.55 1.85 1.52 2.75s-1 2-1.54 3.06zM225.07 94.24c-12.75 0-23-10.43-22.95-22.68 0-12.74 9.71-22.63 22.74-22.87 12.28-.23 22.95 10.26 22.93 22.65a22.87 22.87 0 0 1-22.72 22.9zm18.7-22.84c.3-11.45-9.41-18.86-19.34-18.76-9.64.1-18.78 8.71-18.4 19.32.36 10 8 18.46 19.52 18.3 9.73-.12 18.74-8.89 18.22-18.86zM252.08 68.73c1.28 1.13 2.72 1.79 2.82 2.62.22 1.73-1.44 2.08-2.72 1.79a11.9 11.9 0 0 1-3.05-1.71zM197.47 68.73l3.18 2.57c-1 .64-1.93 1.76-2.92 1.79s-2-1-3-1.62z"/>
      <path d="M245 48.7c.87 1.13 1.85 2.15 1.74 2.3a23.83 23.83 0 0 1-3.42 3.43 7.14 7.14 0 0 1-1.64-1.49c.87-1.36 1.94-2.6 3.32-4.24zM238.27 45.35l-3.69 3.78c-.49-.63-1.53-1.52-1.38-1.83a33.83 33.83 0 0 1 2.68-4.06zM235 92.63a37 37 0 0 1 2.34 5.17c.11.4-1.08 1.18-1.68 1.78a34.19 34.19 0 0 1-2.47-4.28c-.14-.39.81-1.24 1.81-2.67zM200.45 79l2.21 2.2a31.63 31.63 0 0 1-4 2.71c-.3.15-1.24-1-1.88-1.56zM245 94.08c-1.4-1.77-2.5-3.11-3.45-4.55a7.47 7.47 0 0 1 1.57-1.42 29.45 29.45 0 0 1 3.59 3.7c.11.14-.85 1.19-1.71 2.27zM249.26 79.06l3.74 3.32c-.65.55-1.59 1.7-1.89 1.55a31.91 31.91 0 0 1-4.06-2.72zM200.7 63.85l-3.95-3.49c.58-.53 1.42-1.62 1.7-1.49a35.59 35.59 0 0 1 4.16 2.51zM209.08 53c-1.23.86-2.25 1.81-2.43 1.67a24.41 24.41 0 0 1-3.57-3.49 7 7 0 0 1 1.37-1.64c1.45.99 2.8 2.08 4.63 3.46zM211.5 45.3l2.42-2.06a28 28 0 0 1 2.52 3.87c.15.32-.95 1.22-1.47 1.85zM206.7 87.44a13.13 13.13 0 0 1 1.51 1.74c-1.14 1.44-2.4 2.79-3.64 4.16-.53-.58-1.6-1.55-1.52-1.67 1.03-1.39 2.24-2.67 3.65-4.23zM227.4 44.09c-1.07 1.28-1.74 2.81-2.53 2.87-1.84.16-1.81-1.64-1.58-2.85a11.79 11.79 0 0 1 1.58-3zM222.4 98.55l2.53-2.8c.54 1 1.53 2 1.51 3s-1 2-1.63 2.94zM217.32 95.84l-3.52 3.64c-.49-.68-1.55-1.67-1.37-2a15.89 15.89 0 0 1 2.75-3.35 25.33 25.33 0 0 1 2.14 1.71zM250.66 58.56l2 1.81a35.43 35.43 0 0 1-4 2.36c-.31.14-1.08-.72-1.64-1.13zM464.51 591.91a6.33 6.33 0 0 1 6.37 6.22 6.64 6.64 0 0 1-6.35 6.36 6.43 6.43 0 0 1-6.18-6.45 6.26 6.26 0 0 1 6.16-6.13zm.28 3c-1.23 1.42-2.33 2.14-2.57 3.08a1.83 1.83 0 0 0 2.26 2.31 3.29 3.29 0 0 0 2.24-2.08c.13-.82-.97-1.8-1.93-3.34zM150.94 375.34a6.26 6.26 0 0 1-6.18-6.09 6.43 6.43 0 0 1 6.12-6.49 6.29 6.29 0 1 1 .06 12.58zm.1-2.94c1-1.56 2.11-2.5 2-3.31s-1.4-2.09-2.11-2a3 3 0 0 0-2.16 2.09c-.04.76 1.14 1.67 2.23 3.22zM516.38 299.79a6.18 6.18 0 0 1 6.33 5.94 6.73 6.73 0 0 1-6.24 6.54 6.48 6.48 0 0 1-6.26-6.41 6 6 0 0 1 6.17-6.07zm3.39 6.23c-1.58-1.24-2.6-2.62-3.38-2.5a3.8 3.8 0 0 0-2.28 2.52c-.13.49 1.39 1.92 2.28 2s1.76-.98 3.38-2.04zM246.6 285.43c0-2 .09-4.08-.06-6.1 0-.49-.79-1-1.33-1.36-.8-.5-1.73-.81-2.57-1.26-2.36-1.27-3.75-3.23-3.41-5.94s2.37-4.29 4.84-5.32c1-.41 1.83-1.14 2.81-1.54a3.65 3.65 0 0 1 2.4-.35 26 26 0 0 1 5 2.8 16.88 16.88 0 0 1 2.54 2.88l-.58 1.09-5.64-1.14c-1.44 3.93-.68 5.73 3.34 7.31 2.76 1.09 4.1 3 4.08 5.73s-2.08 5.35-5.14 6.53c-1.08.42-1.9 1.5-3 1.9a4.75 4.75 0 0 1-2.95 0 13.35 13.35 0 0 1-3.17-1.87 21.82 21.82 0 0 1-3.83-3c-.52-.58-.33-1.8-.46-2.73 1.14.06 2.41-.19 3.37.25a14.5 14.5 0 0 1 3 2.49zm3.72.16c2.4-.14 3.51-1.18 3.32-3.15a2.8 2.8 0 0 0-3.32-2.82zm-3.18-14.34l-1.51-2.59c-.62.8-1.78 1.62-1.74 2.38.06.95 1.11 1.83 1.73 2.74zM636.17 86.69a58.35 58.35 0 0 0-.09-6.73c-.08-.67-1.08-1.41-1.83-1.77-2.58-1.25-5.05-2.53-5.34-5.82a6.23 6.23 0 0 1 4.43-6.37c.49-.16 1.24 0 1.5-.36 4.09-4.92 6.38 1.1 9.54 1.65.81.14 1.4 1.52 2.19 2.44-2.54 1.87-4.39.52-6.22-.51-1.75 3.86-.94 6.22 2.46 7.51s4.63 2.75 4.65 5.79-1.58 5.13-4.72 6.5c-1.2.52-2.23 1.42-3.41 2a3 3 0 0 1-2.18.33c-2.11-1-4.11-2.25-6.13-3.42a1.8 1.8 0 0 1-.78-.67c-.51-1.19-1.57-3.27-1.28-3.49 1.43-1.07 3-.91 4.26.75.53.7 1.47 1.11 2.95 2.17zm3.52-.82l1 .57c.81-.85 2-1.57 2.33-2.57s-.34-2.1-.8-3.06a1.71 1.71 0 0 0-1.55-.54 1.74 1.74 0 0 0-.9 1.31c-.16 1.42-.08 2.85-.08 4.28zM636 69.13c-1.9-.13-2.8.72-2.76 2.4a2.53 2.53 0 0 0 2.76 2.71zM365.14 178.54a1.93 1.93 0 0 0 2-1.91v-.47a1.93 1.93 0 0 0-1.91-2h-2.7v-9.76c0-3-2.13-3.59-3.19-3.59s-3.19.56-3.19 3.59v9.67l-9.34-.14-7.4-10.2c-1.67-2.33-3-2.93-4.45-2.93-1.26 0-4 .71-4 4.65v8.25h-2.63a1.93 1.93 0 0 0-2 1.91v.39a1.93 1.93 0 0 0 1.91 2h2.7v5.43h-2.6a2.17 2.17 0 0 0-.06 4.34h2.66v6.13c0 3 2.12 3.59 3.19 3.59s3.19-.56 3.19-3.59v-6l12 .17 4.73 6.52c1.72 2.33 3 2.93 4.45 2.93 1.26 0 4-.71 4-4.65v-4.61h2.2a2.17 2.17 0 0 0 .06-4.34h-2.26v-5.42zm-27.83-6.91h.1l1.59 2.19h-1.69zm0 11.93v-5.43l4.87.07 4 5.48zm18.82.27h-2.17l-4-5.48 6.16.09zM227 595.87a1.93 1.93 0 0 0 2.67-.59l.25-.4a1.93 1.93 0 0 0-.59-2.67l-2.27-1.45 5.14-8.31c1.6-2.58.08-4.17-.82-4.73s-3-1.2-4.6 1.38l-5.09 8.23-7.87-5-.94-12.57c-.2-2.86-1-4.09-2.24-4.84s-3.77-1.5-5.85 1.86l-4.34 7-2.22-1.42a1.93 1.93 0 0 0-2.67.59l-.25.4a1.93 1.93 0 0 0 .59 2.67l2.27 1.45-2.85 4.62-2.19-1.4a2.17 2.17 0 0 0-2.34 3.66l2.24 1.43-3.2 5.22c-1.6 2.58-.08 4.17.82 4.73s3 1.2 4.6-1.38l3.18-5.13 10.13 6.47.59 8c.24 2.88 1 4.07 2.24 4.84 1.08.67 3.77 1.5 5.85-1.86l2.42-3.92 1.85 1.18a2.17 2.17 0 0 0 2.34-3.66l-1.91-1.22 2.85-4.62zm-20-20.51l.09.05.2 2.7-1.42-.91zm-6.28 10.15l2.85-4.62 4.1 2.62.5 6.75zm15.86 10.13l-1.83-1.17-.5-6.76 5.19 3.31zM494.22 440c.82-.3 1.63-.61 2.46-.89 3.74-1.28 4.32-4.3 1.71-7.19a32.1 32.1 0 0 1-5-7.19c-3.55-7.22 1.89-12.62 9-12.07 8.64.67 17.25 2 25.84 3.21a7.75 7.75 0 0 1 5.64 11.25 18.53 18.53 0 0 1-8.11 8.23 3.77 3.77 0 0 0-.32 6.58c14.21 9 22.52 22.13 25.43 38.48 2 11.42 1 22.65-6.09 32.45-5.38 7.4-12.88 11.72-21.63 14.09a58.08 58.08 0 0 1-29.41.23c-10.79-2.63-20.19-7.69-27.18-16.44a31.26 31.26 0 0 1-6.7-18.67c-.66-17 6.22-30.74 18.32-42.11a44.67 44.67 0 0 1 16.04-9.96zm31.49 82.54c2.81-1.62 6.06-3.28 9.09-5.27a26.18 26.18 0 0 0 11.28-15.48 49 49 0 0 0-4.47-36.87 53.52 53.52 0 0 0-18.17-19.74 9.41 9.41 0 0 0-3.8-1.44 69.35 69.35 0 0 0-9.3-.72c-4 0-7.92-2.43-12-.85-2 .78-3.88 1.88-5.84 2.79a50.26 50.26 0 0 0-22.52 21c-5 8.66-7.53 18.16-6.53 28a27.45 27.45 0 0 0 9.25 17.89c15.43 13.74 33.22 15.66 53 10.64zM497 423.92c1 1.39 2.87 4 4.92 6.44.47.56 1.66.6 2.54.69s1.56-.31 2.3-.2c4.71.67 9.4 1.46 14.11 2.12a3.08 3.08 0 0 0 2.19-.4A53.21 53.21 0 0 0 530 426c1.8-2.23 1-4.8-1.69-6a23.87 23.87 0 0 0-5.73-1.44c-1.87-.33-3.79-.43-5.69-.63-5.34-.56-10.68-1.25-16-1.62-3.51-.23-5.57 2.87-3.89 7.61zm7.76 10.45c-.5.77-1.42 1.58-1.41 2.38a2.63 2.63 0 0 0 1.76 1.85c4.11.59 8.25 1 12.4 1.28.74 0 1.55-1 2.32-1.52-.61-.75-1.07-1.86-1.85-2.18a18.4 18.4 0 0 0-4.57-.93c-2.69-.34-5.41-.56-8.61-.88z"/>
      <path d="M525.36 489.61a1.93 1.93 0 0 0 2.31-1.47l.1-.46a1.93 1.93 0 0 0-1.47-2.31l-2.63-.58 2-9.56c.61-3-1.35-3.95-2.39-4.16s-3.23-.1-3.85 2.87l-2 9.47-9.12-2-5.19-11.48c-1.16-2.62-2.38-3.49-3.77-3.78s-4.06-.12-4.86 3.75l-1.67 8.07-2.57-.57a1.93 1.93 0 0 0-2.31 1.47l-.1.46a1.93 1.93 0 0 0 1.47 2.31l2.63.58-1.1 5.31-2.54-.56a2.17 2.17 0 0 0-.94 4.24l2.6.58-1.24 6c-.62 3 1.35 3.95 2.39 4.16s3.23.1 3.85-2.87l1.22-5.91 11.74 2.61 3.31 7.34c1.21 2.63 2.33 3.48 3.77 3.78 1.24.26 4.06.12 4.86-3.75l.93-4.51 2.15.48a2.17 2.17 0 0 0 .94-4.24l-2.21-.49 1.1-5.31zm-25.85-12.4h.1l1.11 2.47-1.65-.37zm-2.42 11.69l1.1-5.31 4.75 1.06 2.78 6.18zm18.37 4.1l-2.12-.47-2.79-6.18 6 1.33zM582.92 766.53a1.93 1.93 0 0 0 2.62-.78l.23-.42a1.93 1.93 0 0 0-.78-2.62l-2.37-1.29 4.53-8.65c1.41-2.69-.22-4.17-1.16-4.66s-3.08-1-4.49 1.7l-4.5 8.58-8.21-4.45-1.79-12.47c-.4-2.84-1.33-4-2.58-4.66s-3.87-1.23-5.7 2.27l-3.83 7.3-2.32-1.26a1.93 1.93 0 0 0-2.62.78l-.23.42a1.93 1.93 0 0 0 .78 2.62l2.37 1.29-2.54 4.77-2.33-1.21a2.17 2.17 0 0 0-2 3.81l2.34 1.27-2.84 5.43c-1.41 2.69.22 4.17 1.16 4.66s3.08 1 4.49-1.7l2.8-5.35 10.57 5.73 1.16 8c.44 2.86 1.28 4 2.58 4.66 1.12.59 3.87 1.23 5.7-2.27l2.14-4.08 1.93 1a2.17 2.17 0 0 0 2.07-3.82l-2-1.08 2.52-4.81zm-21.45-19h.09l.39 2.68-1.48-.8zm-5.54 10.57l2.52-4.81 4.28 2.32 1 6.7zm16.55 9l-1.91-1-1-6.71 5.41 2.93z"/>
      <text class="cls-1" transform="translate(460.5 138.61)">
        
      </text>
      <text class="cls-1" transform="translate(214.86 83.95)">
        
      </text>
      <text class="cls-1" transform="translate(319.09 606.78)">
        
      </text>
      <text class="cls-1" transform="translate(721.03 294.62)">
        
      </text>
      <text class="cls-1" transform="translate(653.67 696.18)">
        
      </text>
      <path d="M571.86 421.16c.23-19.4 15.28-35.8 35.82-35.7 19.92.1 35.47 15.28 35.55 35.64.08 20.82-16.54 35.59-35.76 35.75s-35.65-16.35-35.61-35.69zm35.91-31.77c-17.24-.55-31.84 14.5-32 31.4-.14 17.33 14.33 32 31.32 32.12a32.09 32.09 0 0 0 32.28-31.45c.17-17.66-14.37-32.25-31.6-32.07z"/>
      <path d="M630.13 421.09c.68 11.72-9.82 22.88-22.58 22.8a22.94 22.94 0 0 1-22.73-22.81c-.17-11.77 10.34-22.56 22.6-22.64 12.86-.09 23.58 11.43 22.71 22.65zm-22.53-19a19.16 19.16 0 0 0-19 19 18.83 18.83 0 0 0 18.78 19c11.34 0 19.2-8.66 19.1-19-.07-10.84-7.69-18.33-18.88-19.02zM610 448.49l-2.66 2.91c-.62-1-1.71-2-1.72-3.06s1.07-2.07 1.67-3.11zM610 393.94l-2.66 2.93c-.62-1-1.72-2.07-1.71-3.1s1.19-1.92 1.85-2.88zM581.35 407.59l3.91 3.72c-.69.5-1.66 1.57-2 1.4a16.58 16.58 0 0 1-3.65-2.72c-.07-.06.88-1.23 1.74-2.4zM631.73 413.48c-.84-1-1.59-1.48-1.79-2.15-.31-1 2.27-3.11 3.75-2.83.71.13 1.27 1.1 1.89 1.68zM597.23 399.82a39 39 0 0 1-2.25-5.13c-.12-.42 1-1.16 1.48-1.76a38.74 38.74 0 0 1 2.71 4.3c.15.31-.86 1.18-1.94 2.59zM633.68 434.38l-3.8-3.36c.61-.57 1.48-1.74 1.77-1.61a29.36 29.36 0 0 1 3.94 2.47zM618 443a23.92 23.92 0 0 1 1.93 4.1c.13.48-.92 1.28-1.43 1.94a24.47 24.47 0 0 1-2.57-3.76c-.22-.47.62-1.44 1-2.18z"/>
      <path d="M630.21 400.91c-1.83 1.42-3.16 2.49-4.57 3.42a6.72 6.72 0 0 1-1.36-1.61 24.3 24.3 0 0 1 3.5-3.46c.17-.13 1.22.74 2.43 1.65zM615.09 396.53l3.45-3.6c.49.69 1.49 1.49 1.37 2-.36 1.56-.5 3.66-2.76 3.71-.55.06-1.15-1.09-2.06-2.11zM630.32 441.29c-1.45.8-2.48 1.62-2.71 1.44a39.89 39.89 0 0 1-3.52-3.45c.6-.46 1.51-1.45 1.76-1.31a46.23 46.23 0 0 1 4.47 3.32zM587.3 398.21a49.92 49.92 0 0 1 3.34 4.51c.13.21-.91 1.11-1.41 1.7a39.26 39.26 0 0 1-3.36-3.57c-.18-.25.65-1.26 1.43-2.64zM594.25 447l3.4-3.63c.53.59 1.62 1.45 1.49 1.71a34.83 34.83 0 0 1-2.61 4zM581.41 434.35l-1.86-2.4a25.48 25.48 0 0 1 3.78-2.55c.33-.16 1.27 1 1.93 1.52zM634.65 423.36l-3-2.42c1-.57 2.06-1.58 3.08-1.58s2 1.06 3 1.65zM591.69 439.46c-1.86 1.42-3.11 2.44-4.46 3.3a6.07 6.07 0 0 1-1.35-1.51 20.58 20.58 0 0 1 3.24-3.23c.22-.18 1.2.64 2.57 1.44z"/>
      <text class="cls-1" transform="translate(597.08 435.49)">
        
      </text>
      <text class="cls-1" transform="translate(454.74 720.82)">
        $
      </text>
      <circle class="cls-2" cx="328.93" cy="593.77" r="34.64"/>
      <path d="M121.64 480.76a22.79 22.79 0 1 1-22.81 22.75 23 23 0 0 1 22.81-22.75zm18.68 23c.62-9.85-7.58-19.07-18.85-19.09a18.77 18.77 0 0 0-18.76 18.81c.1 10.68 8.11 18.49 18.62 18.87s19.51-8.72 18.99-18.62zM94.48 500.85l2.78 2.72c-1 .58-2 1.64-3 1.62s-2-1.11-3-1.73zM141.8 480.68c.82 1.24 1.66 2.19 1.52 2.36-1.09 1.34-2.36 2.54-3.57 3.78-.53-.57-1.61-1.5-1.51-1.65.96-1.42 2.1-2.71 3.56-4.49zM124.25 476.52l-2.85 2.67c-.55-1-1.55-2.07-1.52-3.08s1.08-2 1.68-3zM148.72 506.22l-2.84-2.72c.87-.59 1.67-1.51 2.61-1.69 1.27-.25 3.15-.34 3.07 1.61-.03.82-1.56 1.58-2.84 2.8zM114 528l-3.56 3.4c-.51-.6-1.56-1.48-1.42-1.74a36.23 36.23 0 0 1 2.7-4z"/>
      <path d="M118.93 530.54l2.52-2.71c.65 1 1.81 1.94 1.8 2.9s-1.17 1.93-1.83 2.9zM145.86 496l-2.07-2.46a34.27 34.27 0 0 1 4.08-2.58c.3-.14 1.16.9 1.77 1.4zM146.07 511.05l3.42 3.55c-.6.48-1.49 1.49-1.76 1.35a36.76 36.76 0 0 1-4-2.75zM132.93 475.11c.42.67 1.35 1.59 1.17 2a31.2 31.2 0 0 1-2.72 4c-.47-.67-1.46-1.48-1.32-2a24.19 24.19 0 0 1 2-4.08zM113.85 479.17c-1 .88-1.51 1.63-2.15 1.78-1.13.26-3-2.22-2.71-3.79.13-.7 1.09-1.25 1.67-1.86zM97.25 511.07c.89 1.08 1.79 1.68 1.77 2.23-.11 2.34-2.38 2.14-3.85 2.72-.35.14-1.18-.92-1.79-1.42zM97.27 495.92l-3.91-3.4c.65-.55 1.58-1.7 1.9-1.55a25.87 25.87 0 0 1 3.81 2.52zM129.13 527.62l2.23-1.94a38.78 38.78 0 0 1 2.64 4.1c.12.24-1 1.09-1.49 1.65zM101.2 480.74c1.49 1.77 2.64 3.06 3.61 4.46.09.12-1.45 1.6-1.5 1.56a25.19 25.19 0 0 1-3.58-3.45c-.17-.21.7-1.31 1.47-2.57zM144 523.58a15 15 0 0 1-2.06 1.66c-1.31-1.11-2.51-2.35-3.74-3.56.56-.52 1.49-1.58 1.63-1.48 1.33.91 2.54 2.03 4.17 3.38z"/>
      <text class="cls-1" transform="translate(111.41 516.03)">
        
      </text>
      <circle class="cls-2" cx="121.25" cy="503.03" r="34.64"/>
    </g>
  </g>
</svg>